<svg version="1.1" viewBox="0.0 0.0 811.6482939632546 435.9737532808399" fill="none" stroke="none" stroke-linecap="square" stroke-miterlimit="10" xmlns:xlink="http://www.w3.org/1999/xlink" xmlns="http://www.w3.org/2000/svg"><clipPath id="p.0"><path d="m0 0l811.6483 0l0 435.97375l-811.6483 0l0 -435.97375z" clip-rule="nonzero"/></clipPath><g clip-path="url(#p.0)"><path fill="#000000" fill-opacity="0.0" d="m0 0l811.6483 0l0 435.97375l-811.6483 0z" fill-rule="evenodd"/><path fill="#ffff00" d="m121.48819 272.6483l0 0c0 -14.298523 12.486679 -25.889755 27.88977 -25.889755l0 0c15.403076 0 27.889755 11.591232 27.889755 25.889755l0 0c0 14.298523 -12.486679 25.88977 -27.889755 25.88977l0 0c-15.403091 0 -27.88977 -11.591248 -27.88977 -25.88977z" fill-rule="evenodd"/><path stroke="#000000" stroke-width="1.0" stroke-linejoin="round" stroke-linecap="butt" d="m121.48819 272.6483l0 0c0 -14.298523 12.486679 -25.889755 27.88977 -25.889755l0 0c15.403076 0 27.889755 11.591232 27.889755 25.889755l0 0c0 14.298523 -12.486679 25.88977 -27.889755 25.88977l0 0c-15.403091 0 -27.88977 -11.591248 -27.88977 -25.88977z" fill-rule="evenodd"/><path fill="#000000" d="m147.88185 281.5364l0 -7.0625l-7.015625 0l0 -2.953125l7.015625 0l0 -7.015625l2.984375 0l0 7.015625l7.015625 0l0 2.953125l-7.015625 0l0 7.0625l-2.984375 0z" fill-rule="nonzero"/><path fill="#ffff00" d="m421.7454 272.6483l0 0c0 -14.298523 12.486694 -25.889755 27.88977 -25.889755l0 0c15.403107 0 27.88977 11.591232 27.88977 25.889755l0 0c0 14.298523 -12.486664 25.88977 -27.88977 25.88977l0 0c-15.403076 0 -27.88977 -11.591248 -27.88977 -25.88977z" fill-rule="evenodd"/><path stroke="#000000" stroke-width="1.0" stroke-linejoin="round" stroke-linecap="butt" d="m421.7454 272.6483l0 0c0 -14.298523 12.486694 -25.889755 27.88977 -25.889755l0 0c15.403107 0 27.88977 11.591232 27.88977 25.889755l0 0c0 14.298523 -12.486664 25.88977 -27.88977 25.88977l0 0c-15.403076 0 -27.88977 -11.591248 -27.88977 -25.88977z" fill-rule="evenodd"/><path fill="#000000" d="m448.13907 281.5364l0 -7.0625l-7.015625 0l0 -2.953125l7.015625 0l0 -7.015625l2.984375 0l0 7.015625l7.015625 0l0 2.953125l-7.015625 0l0 7.0625l-2.984375 0z" fill-rule="nonzero"/><path fill="#ffff00" d="m279.96063 129.75066l0 0c0 -14.298523 12.486664 -25.889763 27.88977 -25.889763l0 0c15.403076 0 27.88974 11.59124 27.88974 25.889763l0 0c0 14.298523 -12.486664 25.88977 -27.88974 25.88977l0 0c-15.403107 0 -27.88977 -11.591248 -27.88977 -25.88977z" fill-rule="evenodd"/><path stroke="#000000" stroke-width="1.0" stroke-linejoin="round" stroke-linecap="butt" d="m279.96063 129.75066l0 0c0 -14.298523 12.486664 -25.889763 27.88977 -25.889763l0 0c15.403076 0 27.88974 11.59124 27.88974 25.889763l0 0c0 14.298523 -12.486664 25.88977 -27.88974 25.88977l0 0c-15.403107 0 -27.88977 -11.591248 -27.88977 -25.88977z" fill-rule="evenodd"/><path fill="#000000" d="m301.97052 121.76378l0.8125 -2.484375q2.796875 0.984375 4.0625 1.703125q-0.34375 -3.1875 -0.359375 -4.375l2.546875 0q-0.046875 1.734375 -0.40625 4.359375q1.8125 -0.921875 4.15625 -1.6875l0.8125 2.484375q-2.234375 0.75 -4.375 0.984375q1.0625 0.9375 3.015625 3.328125l-2.109375 1.5q-1.015625 -1.390625 -2.40625 -3.78125q-1.296875 2.46875 -2.28125 3.78125l-2.078125 -1.5q2.03125 -2.515625 2.921875 -3.328125q-2.265625 -0.4375 -4.3125 -0.984375z" fill-rule="nonzero"/><path fill="#000000" fill-opacity="0.0" d="m98.57481 384.17584l50.803154 -85.63779" fill-rule="evenodd"/><path stroke="#0000ff" stroke-width="2.0" stroke-linejoin="round" stroke-linecap="butt" d="m98.57481 384.17584l44.680626 -75.3172" fill-rule="evenodd"/><path fill="#0000ff" stroke="#0000ff" stroke-width="2.0" stroke-linecap="butt" d="m146.09657 310.54413l1.7896271 -9.491455l-7.4719086 6.120514z" fill-rule="evenodd"/><path fill="#000000" fill-opacity="0.0" d="m169.099 254.34146l138.74014 -98.70865" fill-rule="evenodd"/><path stroke="#0000ff" stroke-width="2.0" stroke-linejoin="round" stroke-linecap="butt" d="m169.09898 254.34148l128.96236 -91.75209" fill-rule="evenodd"/><path fill="#0000ff" stroke="#0000ff" stroke-width="2.0" stroke-linecap="butt" d="m299.97638 165.28111l5.4804077 -7.9533386l-9.310516 2.5698853z" fill-rule="evenodd"/><path fill="#000000" fill-opacity="0.0" d="m305.72177 102.732285l-2.9921265 -63.716537" fill-rule="evenodd"/><path stroke="#0000ff" stroke-width="2.0" stroke-linejoin="round" stroke-linecap="butt" d="m305.72177 102.732285l-2.4292297 -51.729748" fill-rule="evenodd"/><path fill="#0000ff" stroke="#0000ff" stroke-width="2.0" stroke-linecap="butt" d="m306.59238 50.84758l-3.7255554 -8.911247l-2.8740845 9.221165z" fill-rule="evenodd"/><path fill="#000000" fill-opacity="0.0" d="m429.91412 254.34146l-122.078735 -98.70865" fill-rule="evenodd"/><path stroke="#0000ff" stroke-width="2.0" stroke-linejoin="round" stroke-linecap="butt" d="m429.91412 254.34148l-112.74744 -91.1637" fill-rule="evenodd"/><path fill="#0000ff" stroke="#0000ff" stroke-width="2.0" stroke-linecap="butt" d="m319.24374 160.60898l-9.134796 -3.1378326l4.980713 8.275436z" fill-rule="evenodd"/><path fill="#000000" fill-opacity="0.0" d="m497.4147 379.19946l-47.77954 -80.66141" fill-rule="evenodd"/><path stroke="#0000ff" stroke-width="2.0" stroke-linejoin="round" stroke-linecap="butt" d="m497.4147 379.19946l-41.663788 -70.33679" fill-rule="evenodd"/><path fill="#0000ff" stroke="#0000ff" stroke-width="2.0" stroke-linecap="butt" d="m458.59317 307.17908l-7.4678955 -6.1254272l1.7833862 9.492615z" fill-rule="evenodd"/><path fill="#000000" fill-opacity="0.0" d="m197.79527 384.17584l-48.40944 -85.63779" fill-rule="evenodd"/><path stroke="#0000ff" stroke-width="2.0" stroke-linejoin="round" stroke-linecap="butt" d="m197.79527 384.17584l-42.504257 -75.191315" fill-rule="evenodd"/><path fill="#0000ff" stroke="#0000ff" stroke-width="2.0" stroke-linecap="butt" d="m158.16681 307.3589l-7.3421783 -6.275543l1.5905914 9.526825z" fill-rule="evenodd"/><path fill="#000000" fill-opacity="0.0" d="m422.73752 376.20734l26.897644 -77.66928" fill-rule="evenodd"/><path stroke="#0000ff" stroke-width="2.0" stroke-linejoin="round" stroke-linecap="butt" d="m422.73752 376.20734l22.970734 -66.32999" fill-rule="evenodd"/><path fill="#0000ff" stroke="#0000ff" stroke-width="2.0" stroke-linecap="butt" d="m448.82983 310.95837l-0.15145874 -9.657501l-6.091675 7.4954224z" fill-rule="evenodd"/><path fill="#000000" fill-opacity="0.0" d="m63.72966 384.17584l70.708664 0l0 45.259857l-70.708664 0z" fill-rule="evenodd"/><path fill="#000000" d="m72.88591 413.65585l4.046875 -5.75l-3.75 -5.3125l2.34375 0l1.703125 2.59375q0.484375 0.734375 0.765625 1.234375q0.46875 -0.6875 0.84375 -1.21875l1.875 -2.609375l2.234375 0l-3.828125 5.203125l4.125 5.859375l-2.3125 0l-2.265625 -3.4375l-0.609375 -0.921875l-2.90625 4.359375l-2.265625 0zm27.699081 -8.984375l-10.078125 0l0 -1.734375l10.078125 0l0 1.734375zm0 4.640625l-10.078125 0l0 -1.75l10.078125 0l0 1.75zm15.068436 4.34375l-1.875 0l0 -11.9375q-0.6875 0.640625 -1.78125 1.28125q-1.09375 0.640625 -1.96875 0.96875l0 -1.8125q1.5625 -0.734375 2.734375 -1.78125q1.1875 -1.0625 1.671875 -2.046875l1.21875 0l0 15.328125z" fill-rule="nonzero"/><path fill="#000000" fill-opacity="0.0" d="m162.44095 384.17584l70.708664 0l0 45.259857l-70.708664 0z" fill-rule="evenodd"/><path fill="#000000" d="m172.76907 417.92148l-0.21875 -1.765625q0.625 0.171875 1.078125 0.171875q0.625 0 1.0 -0.21875q0.375 -0.203125 0.609375 -0.578125q0.1875 -0.28125 0.578125 -1.390625q0.046875 -0.15625 0.171875 -0.46875l-4.203125 -11.078125l2.015625 0l2.3125 6.40625q0.4375 1.21875 0.796875 2.5625q0.328125 -1.296875 0.765625 -2.515625l2.375 -6.453125l1.875 0l-4.21875 11.25q-0.671875 1.828125 -1.046875 2.515625q-0.5 0.921875 -1.15625 1.34375q-0.640625 0.4375 -1.53125 0.4375q-0.546875 0 -1.203125 -0.21875zm26.527206 -13.25l-10.078125 0l0 -1.734375l10.078125 0l0 1.734375zm0 4.640625l-10.078125 0l0 -1.75l10.078125 0l0 1.75zm17.849686 2.546875l0 1.796875l-10.09375 0q-0.015625 -0.671875 0.21875 -1.296875q0.390625 -1.03125 1.234375 -2.03125q0.859375 -1.0 2.453125 -2.3125q2.5 -2.046875 3.375 -3.234375q0.875 -1.203125 0.875 -2.25q0 -1.125 -0.796875 -1.890625q-0.796875 -0.765625 -2.078125 -0.765625q-1.359375 0 -2.171875 0.8125q-0.8125 0.8125 -0.828125 2.25l-1.921875 -0.1875q0.203125 -2.15625 1.484375 -3.28125q1.296875 -1.140625 3.46875 -1.140625q2.203125 0 3.484375 1.21875q1.28125 1.21875 1.28125 3.015625q0 0.921875 -0.375 1.8125q-0.375 0.875 -1.25 1.859375q-0.859375 0.96875 -2.890625 2.6875q-1.6875 1.40625 -2.171875 1.921875q-0.46875 0.5 -0.78125 1.015625l7.484375 0z" fill-rule="nonzero"/><path fill="#000000" fill-opacity="0.0" d="m386.39108 379.2152l70.70865 0l0 45.259857l-70.70865 0z" fill-rule="evenodd"/><path fill="#000000" d="m395.54733 408.69522l4.046875 -5.75l-3.75 -5.3125l2.34375 0l1.703125 2.59375q0.484375 0.734375 0.765625 1.234375q0.46875 -0.6875 0.84375 -1.21875l1.875 -2.609375l2.234375 0l-3.828125 5.203125l4.125 5.859375l-2.3125 0l-2.265625 -3.4375l-0.609375 -0.921875l-2.90625 4.359375l-2.265625 0zm27.699066 -8.984375l-10.078125 0l0 -1.734375l10.078125 0l0 1.734375zm0 4.640625l-10.078125 0l0 -1.75l10.078125 0l0 1.75zm15.068451 4.34375l-1.875 0l0 -11.9375q-0.6875 0.640625 -1.78125 1.28125q-1.09375 0.640625 -1.96875 0.96875l0 -1.8125q1.5625 -0.734375 2.734375 -1.78125q1.1875 -1.0625 1.671875 -2.046875l1.21875 0l0 15.328125z" fill-rule="nonzero"/><path fill="#000000" fill-opacity="0.0" d="m497.43045 379.2152l70.70865 0l0 45.259857l-70.70865 0z" fill-rule="evenodd"/><path fill="#000000" d="m514.38354 408.69522l-1.875 0l0 -11.9375q-0.6874695 0.640625 -1.7812195 1.28125q-1.09375 0.640625 -1.96875 0.96875l0 -1.8125q1.5625 -0.734375 2.734375 -1.78125q1.1874695 -1.0625 1.6718445 -2.046875l1.21875 0l0 15.328125z" fill-rule="nonzero"/><path fill="#000000" fill-opacity="0.0" d="m89.74803 177.21523l143.40158 0l0 45.259842l-143.40158 0z" fill-rule="evenodd"/><path fill="#0000ff" d="m107.37303 205.33585q-1.046875 0.875 -2.015625 1.25q-0.953125 0.359375 -2.0625 0.359375q-1.8125 0 -2.796875 -0.890625q-0.984375 -0.890625 -0.984375 -2.28125q0 -0.8125 0.375 -1.484375q0.375 -0.671875 0.96875 -1.078125q0.59375 -0.40625 1.34375 -0.609375q0.5625 -0.140625 1.671875 -0.28125q2.265625 -0.265625 3.34375 -0.640625q0.015625 -0.390625 0.015625 -0.5q0 -1.140625 -0.53125 -1.609375q-0.71875 -0.640625 -2.140625 -0.640625q-1.328125 0 -1.953125 0.46875q-0.625 0.46875 -0.9375 1.640625l-1.828125 -0.25q0.25 -1.171875 0.8125 -1.890625q0.578125 -0.734375 1.65625 -1.125q1.09375 -0.390625 2.515625 -0.390625q1.421875 0 2.296875 0.34375q0.890625 0.328125 1.3125 0.828125q0.421875 0.5 0.578125 1.28125q0.09375 0.46875 0.09375 1.71875l0 2.5q0 2.625 0.125 3.3125q0.125 0.6875 0.46875 1.328125l-1.953125 0q-0.296875 -0.578125 -0.375 -1.359375zm-0.15625 -4.1875q-1.015625 0.40625 -3.0625 0.703125q-1.15625 0.171875 -1.640625 0.375q-0.46875 0.203125 -0.734375 0.609375q-0.265625 0.40625 -0.265625 0.890625q0 0.75 0.5625 1.25q0.578125 0.5 1.671875 0.5q1.078125 0 1.921875 -0.46875q0.84375 -0.484375 1.25 -1.296875q0.296875 -0.640625 0.296875 -1.875l0 -0.6875zm20.584213 -3.4375l-10.078125 0l0 -1.734375l10.078125 0l0 1.734375zm0 4.640625l-10.078125 0l0 -1.75l10.078125 0l0 1.75zm7.2715607 4.34375l4.046875 -5.75l-3.75 -5.3125l2.34375 0l1.703125 2.59375q0.484375 0.734375 0.765625 1.234375q0.46875 -0.6875 0.84375 -1.21875l1.875 -2.609375l2.234375 0l-3.828125 5.203125l4.125 5.859375l-2.3125 0l-2.265625 -3.4375l-0.609375 -0.921875l-2.90625 4.359375l-2.265625 0zm15.8515625 -2.46875l0 -4.1875l-4.15625 0l0 -1.75l4.15625 0l0 -4.15625l1.765625 0l0 4.15625l4.15625 0l0 1.75l-4.15625 0l0 4.1875l-1.765625 0zm8.439667 6.734375l-0.21875 -1.765625q0.625 0.171875 1.078125 0.171875q0.625 0 1.0 -0.21875q0.375 -0.203125 0.609375 -0.578125q0.1875 -0.28125 0.578125 -1.390625q0.046875 -0.15625 0.171875 -0.46875l-4.203125 -11.078125l2.015625 0l2.3125 6.40625q0.4375 1.21875 0.796875 2.5625q0.328125 -1.296875 0.765625 -2.515625l2.375 -6.453125l1.875 0l-4.21875 11.25q-0.671875 1.828125 -1.046875 2.515625q-0.5 0.921875 -1.15625 1.34375q-0.640625 0.4375 -1.53125 0.4375q-0.546875 0 -1.203125 -0.21875zm26.527206 -13.25l-10.078125 0l0 -1.734375l10.078125 0l0 1.734375zm0 4.640625l-10.078125 0l0 -1.75l10.078125 0l0 1.75zm8.005936 0.3125l1.875 -0.25q0.328125 1.59375 1.09375 2.296875q0.78125 0.703125 1.90625 0.703125q1.3125 0 2.21875 -0.90625q0.921875 -0.921875 0.921875 -2.28125q0 -1.296875 -0.84375 -2.125q-0.84375 -0.84375 -2.140625 -0.84375q-0.53125 0 -1.328125 0.203125l0.203125 -1.640625q0.1875 0.015625 0.3125 0.015625q1.1875 0 2.140625 -0.625q0.96875 -0.625 0.96875 -1.921875q0 -1.03125 -0.703125 -1.703125q-0.6875 -0.671875 -1.796875 -0.671875q-1.09375 0 -1.828125 0.6875q-0.71875 0.6875 -0.9375 2.0625l-1.875 -0.34375q0.34375 -1.875 1.5625 -2.90625q1.21875 -1.046875 3.03125 -1.046875q1.25 0 2.296875 0.546875q1.0625 0.53125 1.609375 1.453125q0.5625 0.921875 0.5625 1.96875q0 0.984375 -0.53125 1.796875q-0.53125 0.8125 -1.5625 1.296875q1.34375 0.3125 2.09375 1.296875q0.75 0.984375 0.75 2.453125q0 2.0 -1.453125 3.390625q-1.453125 1.390625 -3.6875 1.390625q-2.015625 0 -3.34375 -1.1875q-1.328125 -1.203125 -1.515625 -3.109375z" fill-rule="nonzero"/><path fill="#000000" fill-opacity="0.0" d="m398.95013 177.21391l143.40155 0l0 45.259842l-143.40155 0z" fill-rule="evenodd"/><path fill="#0000ff" d="m411.09076 206.69391l-1.75 0l0 -15.265625l1.875 0l0 5.4375q1.1875 -1.484375 3.03125 -1.484375q1.03125 0 1.9375 0.421875q0.90625 0.40625 1.5 1.15625q0.59375 0.734375 0.921875 1.796875q0.328125 1.046875 0.328125 2.234375q0 2.84375 -1.40625 4.40625q-1.40625 1.546875 -3.375 1.546875q-1.953125 0 -3.0625 -1.640625l0 1.390625zm-0.03125 -5.609375q0 1.984375 0.546875 2.875q0.890625 1.4375 2.390625 1.4375q1.234375 0 2.125 -1.0625q0.90625 -1.0625 0.90625 -3.1875q0 -2.15625 -0.859375 -3.1875q-0.859375 -1.03125 -2.078125 -1.03125q-1.234375 0 -2.140625 1.0625q-0.890625 1.0625 -0.890625 3.09375zm25.943573 -3.375l-10.078125 0l0 -1.734375l10.078125 0l0 1.734375zm0 4.640625l-10.078125 0l0 -1.75l10.078125 0l0 1.75zm7.271576 4.34375l4.046875 -5.75l-3.75 -5.3125l2.34375 0l1.703125 2.59375q0.484375 0.734375 0.765625 1.234375q0.46875 -0.6875 0.84375 -1.21875l1.875 -2.609375l2.234375 0l-3.828125 5.203125l4.125 5.859375l-2.3125 0l-2.265625 -3.4375l-0.609375 -0.921875l-2.90625 4.359375l-2.265625 0zm15.8515625 -2.46875l0 -4.1875l-4.15625 0l0 -1.75l4.15625 0l0 -4.15625l1.765625 0l0 4.15625l4.15625 0l0 1.75l-4.15625 0l0 4.1875l-1.765625 0zm15.064667 2.46875l-1.875 0l0 -11.9375q-0.6875 0.640625 -1.78125 1.28125q-1.09375 0.640625 -1.96875 0.96875l0 -1.8125q1.5625 -0.734375 2.734375 -1.78125q1.1875 -1.0625 1.671875 -2.046875l1.21875 0l0 15.328125zm21.099823 -8.984375l-10.078125 0l0 -1.734375l10.078125 0l0 1.734375zm0 4.640625l-10.078125 0l0 -1.75l10.078125 0l0 1.75zm17.84967 2.546875l0 1.796875l-10.0937195 0q-0.015625 -0.671875 0.21875 -1.296875q0.390625 -1.03125 1.234375 -2.03125q0.859375 -1.0 2.453125 -2.3125q2.5 -2.046875 3.375 -3.234375q0.8749695 -1.203125 0.8749695 -2.25q0 -1.125 -0.7968445 -1.890625q-0.796875 -0.765625 -2.078125 -0.765625q-1.359375 0 -2.171875 0.8125q-0.8125 0.8125 -0.828125 2.25l-1.921875 -0.1875q0.203125 -2.15625 1.484375 -3.28125q1.296875 -1.140625 3.46875 -1.140625q2.203125 0 3.4843445 1.21875q1.28125 1.21875 1.28125 3.015625q0 0.921875 -0.375 1.8125q-0.375 0.875 -1.25 1.859375q-0.8593445 0.96875 -2.8905945 2.6875q-1.6875 1.40625 -2.171875 1.921875q-0.46875 0.5 -0.78125 1.015625l7.4843445 0z" fill-rule="nonzero"/><path fill="#000000" fill-opacity="0.0" d="m190.19685 1.7060367l143.40157 0l0 45.259842l-143.40157 0z" fill-rule="evenodd"/><path fill="#0000ff" d="m201.05623 31.186037l0 -9.609375l-1.65625 0l0 -1.453125l1.65625 0l0 -1.171875q0 -1.109375 0.1875 -1.65625q0.28125 -0.734375 0.953125 -1.1875q0.6875 -0.45312595 1.921875 -0.45312595q0.78125 0 1.75 0.1875l-0.28125 1.640626q-0.59375 -0.109375 -1.109375 -0.109375q-0.859375 0 -1.21875 0.375q-0.34375 0.359375 -0.34375 1.359375l0 1.015625l2.15625 0l0 1.453125l-2.15625 0l0 9.609375l-1.859375 0zm21.257538 -8.984375l-10.078125 0l0 -1.734375l10.078125 0l0 1.734375zm0 4.640625l-10.078125 0l0 -1.75l10.078125 0l0 1.75zm15.740311 2.984375q-1.046875 0.875 -2.015625 1.25q-0.953125 0.359375 -2.0625 0.359375q-1.8125 0 -2.796875 -0.890625q-0.984375 -0.890625 -0.984375 -2.28125q0 -0.8125 0.375 -1.484375q0.375 -0.671875 0.96875 -1.078125q0.59375 -0.40625 1.34375 -0.609375q0.5625 -0.140625 1.671875 -0.28125q2.265625 -0.265625 3.34375 -0.640625q0.015625 -0.390625 0.015625 -0.5q0 -1.140625 -0.53125 -1.609375q-0.71875 -0.640625 -2.140625 -0.640625q-1.328125 0 -1.953125 0.46875q-0.625 0.46875 -0.9375 1.640625l-1.828125 -0.25q0.25 -1.171875 0.8125 -1.890625q0.578125 -0.734375 1.65625 -1.125q1.09375 -0.390625 2.515625 -0.390625q1.421875 0 2.296875 0.34375q0.890625 0.328125 1.3125 0.828125q0.421875 0.5 0.578125 1.28125q0.09375 0.46875 0.09375 1.71875l0 2.5q0 2.625 0.125 3.3125q0.125 0.6875 0.46875 1.328125l-1.953125 0q-0.296875 -0.578125 -0.375 -1.359375zm-0.15625 -4.1875q-1.015625 0.40625 -3.0625 0.703125q-1.15625 0.171875 -1.640625 0.375q-0.46875 0.203125 -0.734375 0.609375q-0.265625 0.40625 -0.265625 0.890625q0 0.75 0.5625 1.25q0.578125 0.5 1.671875 0.5q1.078125 0 1.921875 -0.46875q0.84375 -0.484375 1.25 -1.296875q0.296875 -0.640625 0.296875 -1.875l0 -0.6875zm4.0648193 -6.921875l0.46875 -1.46875q1.65625 0.578125 2.40625 1.0q-0.1875 -1.875 -0.203125 -2.593751l1.515625 0q-0.03125 1.031251 -0.25 2.593751q1.078125 -0.546875 2.46875 -1.0l0.46875 1.46875q-1.3125 0.4375 -2.59375 0.59375q0.640625 0.546875 1.796875 1.953125l-1.25 0.890625q-0.609375 -0.828125 -1.421875 -2.234375q-0.78125 1.46875 -1.359375 2.234375l-1.234375 -0.890625q1.21875 -1.484375 1.734375 -1.953125q-1.34375 -0.265625 -2.546875 -0.59375zm10.768814 12.46875l-1.75 0l0 -15.265626l1.875 0l0 5.437501q1.1875 -1.484375 3.03125 -1.484375q1.0312347 0 1.9374847 0.421875q0.90625 0.40625 1.5 1.15625q0.59375 0.734375 0.921875 1.796875q0.328125 1.046875 0.328125 2.234375q0 2.84375 -1.40625 4.40625q-1.40625 1.546875 -3.3749847 1.546875q-1.953125 0 -3.0625 -1.640625l0 1.390625zm-0.03125 -5.609375q0 1.984375 0.546875 2.875q0.890625 1.4375 2.390625 1.4375q1.2343597 0 2.1249847 -1.0625q0.90625 -1.0625 0.90625 -3.1875q0 -2.15625 -0.859375 -3.1875q-0.859375 -1.03125 -2.0781097 -1.03125q-1.234375 0 -2.140625 1.0625q-0.890625 1.0625 -0.890625 3.09375zm25.943588 -3.375l-10.078125 0l0 -1.734375l10.078125 0l0 1.734375zm0 4.640625l-10.078125 0l0 -1.75l10.078125 0l0 1.75zm17.72467 -7.1875l-1.859375 0.15625q-0.25 -1.109375 -0.703125 -1.609375q-0.765625 -0.796875 -1.875 -0.796875q-0.90625 0 -1.578125 0.5q-0.890625 0.640625 -1.40625 1.875q-0.5 1.234375 -0.515625 3.53125q0.671875 -1.03125 1.640625 -1.53125q0.984375 -0.5 2.0625 -0.5q1.875 0 3.1875 1.390625q1.3125 1.375 1.3125 3.5625q0 1.4375 -0.625 2.671875q-0.609375 1.234375 -1.6875 1.890625q-1.078125 0.65625 -2.453125 0.65625q-2.34375 0 -3.828125 -1.71875q-1.484375 -1.734375 -1.484375 -5.6875q0 -4.421875 1.640625 -6.4375q1.421875 -1.750001 3.84375 -1.750001q1.796875 0 2.953125 1.015626q1.15625 1.0 1.375 2.78125zm-7.65625 6.578125q0 0.96875 0.40625 1.859375q0.421875 0.890625 1.15625 1.359375q0.75 0.453125 1.5625 0.453125q1.1875 0 2.03125 -0.953125q0.859375 -0.96875 0.859375 -2.609375q0 -1.578125 -0.84375 -2.484375q-0.84375 -0.921875 -2.125 -0.921875q-1.265625 0 -2.15625 0.921875q-0.890625 0.90625 -0.890625 2.375z" fill-rule="nonzero"/><path fill="#000000" fill-opacity="0.0" d="m313.68765 42.98163l1.1338806 61.385826" fill-rule="evenodd"/><path stroke="#ff0000" stroke-width="2.0" stroke-linejoin="round" stroke-linecap="butt" d="m313.68765 42.98163l0.91226196 49.38788" fill-rule="evenodd"/><path fill="#ff0000" stroke="#ff0000" stroke-width="2.0" stroke-linecap="butt" d="m311.297 92.43051l3.47052 9.013634l3.1352844 -9.135651z" fill-rule="evenodd"/><path fill="#000000" fill-opacity="0.0" d="m307.8399 1.7060367l143.40155 0l0 45.259842l-143.40155 0z" fill-rule="evenodd"/><path fill="#ff0000" d="m325.41803 31.186037l0 -1.390625q-1.046875 1.640625 -3.09375 1.640625q-1.3125 0 -2.421875 -0.71875q-1.109375 -0.734375 -1.71875 -2.046875q-0.609375 -1.3125 -0.609375 -3.0q0 -1.65625 0.546875 -3.0q0.546875 -1.359375 1.65625 -2.078125q1.109375 -0.71875 2.46875 -0.71875q1.0 0 1.78125 0.421875q0.78125 0.421875 1.265625 1.09375l0 -5.468751l1.875 0l0 15.265626l-1.75 0zm-5.921875 -5.515625q0 2.125 0.890625 3.171875q0.90625 1.046875 2.125 1.046875q1.21875 0 2.078125 -1.0q0.859375 -1.0 0.859375 -3.0625q0 -2.28125 -0.875 -3.34375q-0.875 -1.0625 -2.15625 -1.0625q-1.25 0 -2.09375 1.03125q-0.828125 1.015625 -0.828125 3.21875zm11.064819 5.515625l0 -9.609375l-1.65625 0l0 -1.453125l1.65625 0l0 -1.171875q0 -1.109375 0.1875 -1.65625q0.28125 -0.734375 0.953125 -1.1875q0.6875 -0.45312595 1.921875 -0.45312595q0.78125 0 1.75 0.1875l-0.28125 1.640626q-0.59375 -0.109375 -1.109375 -0.109375q-0.859375 0 -1.21875 0.375q-0.34375 0.359375 -0.34375 1.359375l0 1.015625l2.15625 0l0 1.453125l-2.15625 0l0 9.609375l-1.859375 0zm4.0662537 0.265625l4.421875 -15.796876l1.5 0l-4.40625 15.796876l-1.515625 0zm14.503784 -0.265625l0 -1.390625q-1.046875 1.640625 -3.09375 1.640625q-1.3125 0 -2.421875 -0.71875q-1.109375 -0.734375 -1.71875 -2.046875q-0.609375 -1.3125 -0.609375 -3.0q0 -1.65625 0.546875 -3.0q0.546875 -1.359375 1.65625 -2.078125q1.109375 -0.71875 2.46875 -0.71875q1.0 0 1.78125 0.421875q0.78125 0.421875 1.265625 1.09375l0 -5.468751l1.875 0l0 15.265626l-1.75 0zm-5.921875 -5.515625q0 2.125 0.890625 3.171875q0.90625 1.046875 2.125 1.046875q1.21875 0 2.078125 -1.0q0.859375 -1.0 0.859375 -3.0625q0 -2.28125 -0.875 -3.34375q-0.875 -1.0625 -2.15625 -1.0625q-1.25 0 -2.09375 1.03125q-0.828125 1.015625 -0.828125 3.21875zm11.064819 5.515625l0 -9.609375l-1.65625 0l0 -1.453125l1.65625 0l0 -1.171875q0 -1.109375 0.1875 -1.65625q0.28125 -0.734375 0.953125 -1.1875q0.6875 -0.45312595 1.921875 -0.45312595q0.78125 0 1.75 0.1875l-0.28125 1.640626q-0.59375 -0.109375 -1.109375 -0.109375q-0.859375 0 -1.21875 0.375q-0.34375 0.359375 -0.34375 1.359375l0 1.015625l2.15625 0l0 1.453125l-2.15625 0l0 9.609375l-1.859375 0zm21.257538 -8.984375l-10.078125 0l0 -1.734375l10.078125 0l0 1.734375zm0 4.640625l-10.078125 0l0 -1.75l10.078125 0l0 1.75zm15.06842 4.34375l-1.875 0l0 -11.9375q-0.6875 0.640625 -1.78125 1.28125q-1.09375 0.640625 -1.96875 0.96875l0 -1.8125q1.5625 -0.734375 2.734375 -1.78125q1.1875 -1.0625 1.671875 -2.046876l1.21875 0l0 15.328126z" fill-rule="nonzero"/><path fill="#000000" fill-opacity="0.0" d="m364.48557 134.98032l143.40158 0l0 45.259842l-143.40158 0z" fill-rule="evenodd"/><path fill="#ff0000" d="m382.0637 164.46031l0 -1.390625q-1.046875 1.640625 -3.09375 1.640625q-1.3125 0 -2.421875 -0.71875q-1.109375 -0.734375 -1.71875 -2.046875q-0.609375 -1.3125 -0.609375 -3.0q0 -1.65625 0.546875 -3.0q0.546875 -1.359375 1.65625 -2.078125q1.109375 -0.71875 2.46875 -0.71875q1.0 0 1.78125 0.421875q0.78125 0.421875 1.265625 1.09375l0 -5.46875l1.875 0l0 15.265625l-1.75 0zm-5.921875 -5.515625q0 2.125 0.890625 3.171875q0.90625 1.046875 2.125 1.046875q1.21875 0 2.078125 -1.0q0.859375 -1.0 0.859375 -3.0625q0 -2.28125 -0.875 -3.34375q-0.875 -1.0625 -2.15625 -1.0625q-1.25 0 -2.09375 1.03125q-0.828125 1.015625 -0.828125 3.21875zm11.064819 5.515625l0 -9.609375l-1.65625 0l0 -1.453125l1.65625 0l0 -1.171875q0 -1.109375 0.1875 -1.65625q0.28125 -0.734375 0.953125 -1.1875q0.6875 -0.453125 1.921875 -0.453125q0.78125 0 1.75 0.1875l-0.28125 1.640625q-0.59375 -0.109375 -1.109375 -0.109375q-0.859375 0 -1.21875 0.375q-0.34375 0.359375 -0.34375 1.359375l0 1.015625l2.15625 0l0 1.453125l-2.15625 0l0 9.609375l-1.859375 0zm4.0662537 0.265625l4.421875 -15.796875l1.5 0l-4.40625 15.796875l-1.515625 0zm14.503784 -0.265625l0 -1.390625q-1.046875 1.640625 -3.09375 1.640625q-1.3125 0 -2.421875 -0.71875q-1.109375 -0.734375 -1.71875 -2.046875q-0.609375 -1.3125 -0.609375 -3.0q0 -1.65625 0.546875 -3.0q0.546875 -1.359375 1.65625 -2.078125q1.109375 -0.71875 2.46875 -0.71875q1.0 0 1.78125 0.421875q0.78125 0.421875 1.265625 1.09375l0 -5.46875l1.875 0l0 15.265625l-1.75 0zm-5.921875 -5.515625q0 2.125 0.890625 3.171875q0.90625 1.046875 2.125 1.046875q1.21875 0 2.078125 -1.0q0.859375 -1.0 0.859375 -3.0625q0 -2.28125 -0.875 -3.34375q-0.875 -1.0625 -2.15625 -1.0625q-1.25 0 -2.09375 1.03125q-0.828125 1.015625 -0.828125 3.21875zm12.346069 5.515625l-1.75 0l0 -15.265625l1.875 0l0 5.4375q1.1875 -1.484375 3.03125 -1.484375q1.03125 0 1.9375 0.421875q0.90625 0.40625 1.5 1.15625q0.59375 0.734375 0.921875 1.796875q0.328125 1.046875 0.328125 2.234375q0 2.84375 -1.40625 4.40625q-1.40625 1.546875 -3.375 1.546875q-1.953125 0 -3.0625 -1.640625l0 1.390625zm-0.03125 -5.609375q0 1.984375 0.546875 2.875q0.890625 1.4375 2.390625 1.4375q1.234375 0 2.125 -1.0625q0.90625 -1.0625 0.90625 -3.1875q0 -2.15625 -0.859375 -3.1875q-0.859375 -1.03125 -2.078125 -1.03125q-1.234375 0 -2.140625 1.0625q-0.890625 1.0625 -0.890625 3.09375zm25.943573 -3.375l-10.078125 0l0 -1.734375l10.078125 0l0 1.734375zm0 4.640625l-10.078125 0l0 -1.75l10.078125 0l0 1.75zm15.740326 2.984375q-1.046875 0.875 -2.015625 1.25q-0.953125 0.359375 -2.0625 0.359375q-1.8125 0 -2.796875 -0.890625q-0.984375 -0.890625 -0.984375 -2.28125q0 -0.8125 0.375 -1.484375q0.375 -0.671875 0.96875 -1.078125q0.59375 -0.40625 1.34375 -0.609375q0.5625 -0.140625 1.671875 -0.28125q2.265625 -0.265625 3.34375 -0.640625q0.015625 -0.390625 0.015625 -0.5q0 -1.140625 -0.53125 -1.609375q-0.71875 -0.640625 -2.140625 -0.640625q-1.328125 0 -1.953125 0.46875q-0.625 0.46875 -0.9375 1.640625l-1.828125 -0.25q0.25 -1.171875 0.8125 -1.890625q0.578125 -0.734375 1.65625 -1.125q1.09375 -0.390625 2.515625 -0.390625q1.421875 0 2.296875 0.34375q0.890625 0.328125 1.3125 0.828125q0.421875 0.5 0.578125 1.28125q0.09375 0.46875 0.09375 1.71875l0 2.5q0 2.625 0.125 3.3125q0.125 0.6875 0.46875 1.328125l-1.953125 0q-0.296875 -0.578125 -0.375 -1.359375zm-0.15625 -4.1875q-1.015625 0.40625 -3.0625 0.703125q-1.15625 0.171875 -1.640625 0.375q-0.46875 0.203125 -0.734375 0.609375q-0.265625 0.40625 -0.265625 0.890625q0 0.75 0.5625 1.25q0.578125 0.5 1.671875 0.5q1.078125 0 1.921875 -0.46875q0.84375 -0.484375 1.25 -1.296875q0.296875 -0.640625 0.296875 -1.875l0 -0.6875zm20.584198 -3.4375l-10.078125 0l0 -1.734375l10.078125 0l0 1.734375zm0 4.640625l-10.078125 0l0 -1.75l10.078125 0l0 1.75zm8.005951 0.3125l1.875 -0.25q0.328125 1.59375 1.09375 2.296875q0.78125 0.703125 1.90625 0.703125q1.3125 0 2.21875 -0.90625q0.921875 -0.921875 0.921875 -2.28125q0 -1.296875 -0.84375 -2.125q-0.84375 -0.84375 -2.140625 -0.84375q-0.53125 0 -1.328125 0.203125l0.203125 -1.640625q0.1875 0.015625 0.3125 0.015625q1.1875 0 2.140625 -0.625q0.96875 -0.625 0.96875 -1.921875q0 -1.03125 -0.703125 -1.703125q-0.6875 -0.671875 -1.796875 -0.671875q-1.09375 0 -1.828125 0.6875q-0.71875 0.6875 -0.9375 2.0625l-1.875 -0.34375q0.34375 -1.875 1.5625 -2.90625q1.21875 -1.046875 3.03125 -1.046875q1.25 0 2.296875 0.546875q1.0625 0.53125 1.609375 1.453125q0.5625 0.921875 0.5625 1.96875q0 0.984375 -0.53125 1.796875q-0.53125 0.8125 -1.5625 1.296875q1.34375 0.3125 2.09375 1.296875q0.75 0.984375 0.75 2.453125q0 2.0 -1.453125 3.390625q-1.453125 1.390625 -3.6875 1.390625q-2.015625 0 -3.34375 -1.1875q-1.328125 -1.203125 -1.515625 -3.109375z" fill-rule="nonzero"/><path fill="#000000" fill-opacity="0.0" d="m169.099 290.9551l50.992126 97.57483" fill-rule="evenodd"/><path stroke="#ff0000" stroke-width="2.0" stroke-linejoin="round" stroke-linecap="butt" d="m169.09898 290.9551l45.43419 86.939545" fill-rule="evenodd"/><path fill="#ff0000" stroke="#ff0000" stroke-width="2.0" stroke-linecap="butt" d="m211.60541 379.42468l7.1315155 6.513977l-1.2759705 -9.574036z" fill-rule="evenodd"/><path fill="#000000" fill-opacity="0.0" d="m126.09449 128.46326l143.40158 0l0 45.259842l-143.40158 0z" fill-rule="evenodd"/><path fill="#ff0000" d="m143.6726 157.94325l0 -1.390625q-1.046875 1.640625 -3.09375 1.640625q-1.3125 0 -2.421875 -0.71875q-1.109375 -0.734375 -1.71875 -2.046875q-0.609375 -1.3125 -0.609375 -3.0q0 -1.65625 0.546875 -3.0q0.546875 -1.359375 1.65625 -2.078125q1.109375 -0.71875 2.46875 -0.71875q1.0 0 1.78125 0.421875q0.78125 0.421875 1.265625 1.09375l0 -5.46875l1.875 0l0 15.265625l-1.75 0zm-5.921875 -5.515625q0 2.125 0.890625 3.171875q0.90625 1.046875 2.125 1.046875q1.21875 0 2.078125 -1.0q0.859375 -1.0 0.859375 -3.0625q0 -2.28125 -0.875 -3.34375q-0.875 -1.0625 -2.15625 -1.0625q-1.25 0 -2.09375 1.03125q-0.828125 1.015625 -0.828125 3.21875zm11.064819 5.515625l0 -9.609375l-1.65625 0l0 -1.453125l1.65625 0l0 -1.171875q0 -1.109375 0.1875 -1.65625q0.28125 -0.734375 0.953125 -1.1875q0.6875 -0.453125 1.921875 -0.453125q0.78125 0 1.75 0.1875l-0.28125 1.640625q-0.59375 -0.109375 -1.109375 -0.109375q-0.859375 0 -1.21875 0.375q-0.34375 0.359375 -0.34375 1.359375l0 1.015625l2.15625 0l0 1.453125l-2.15625 0l0 9.609375l-1.859375 0zm4.066269 0.265625l4.421875 -15.796875l1.5 0l-4.40625 15.796875l-1.515625 0zm14.503769 -0.265625l0 -1.390625q-1.046875 1.640625 -3.09375 1.640625q-1.3125 0 -2.421875 -0.71875q-1.109375 -0.734375 -1.71875 -2.046875q-0.609375 -1.3125 -0.609375 -3.0q0 -1.65625 0.546875 -3.0q0.546875 -1.359375 1.65625 -2.078125q1.109375 -0.71875 2.46875 -0.71875q1.0 0 1.78125 0.421875q0.78125 0.421875 1.265625 1.09375l0 -5.46875l1.875 0l0 15.265625l-1.75 0zm-5.921875 -5.515625q0 2.125 0.890625 3.171875q0.90625 1.046875 2.125 1.046875q1.21875 0 2.078125 -1.0q0.859375 -1.0 0.859375 -3.0625q0 -2.28125 -0.875 -3.34375q-0.875 -1.0625 -2.15625 -1.0625q-1.25 0 -2.09375 1.03125q-0.828125 1.015625 -0.828125 3.21875zm17.830444 4.15625q-1.046875 0.875 -2.015625 1.25q-0.953125 0.359375 -2.0625 0.359375q-1.8125 0 -2.796875 -0.890625q-0.984375 -0.890625 -0.984375 -2.28125q0 -0.8125 0.375 -1.484375q0.375 -0.671875 0.96875 -1.078125q0.59375 -0.40625 1.34375 -0.609375q0.5625 -0.140625 1.671875 -0.28125q2.265625 -0.265625 3.34375 -0.640625q0.015625 -0.390625 0.015625 -0.5q0 -1.140625 -0.53125 -1.609375q-0.71875 -0.640625 -2.140625 -0.640625q-1.328125 0 -1.953125 0.46875q-0.625 0.46875 -0.9375 1.640625l-1.828125 -0.25q0.25 -1.171875 0.8125 -1.890625q0.578125 -0.734375 1.65625 -1.125q1.09375 -0.390625 2.515625 -0.390625q1.421875 0 2.296875 0.34375q0.890625 0.328125 1.3125 0.828125q0.421875 0.5 0.578125 1.28125q0.09375 0.46875 0.09375 1.71875l0 2.5q0 2.625 0.125 3.3125q0.125 0.6875 0.46875 1.328125l-1.953125 0q-0.296875 -0.578125 -0.375 -1.359375zm-0.15625 -4.1875q-1.015625 0.40625 -3.0625 0.703125q-1.15625 0.171875 -1.640625 0.375q-0.46875 0.203125 -0.734375 0.609375q-0.265625 0.40625 -0.265625 0.890625q0 0.75 0.5625 1.25q0.578125 0.5 1.671875 0.5q1.078125 0 1.921875 -0.46875q0.84375 -0.484375 1.25 -1.296875q0.296875 -0.640625 0.296875 -1.875l0 -0.6875zm20.584213 -3.4375l-10.078125 0l0 -1.734375l10.078125 0l0 1.734375zm0 4.640625l-10.078125 0l0 -1.75l10.078125 0l0 1.75zm10.255936 4.34375l-1.75 0l0 -15.265625l1.875 0l0 5.4375q1.1875 -1.484375 3.03125 -1.484375q1.03125 0 1.9375 0.421875q0.90625 0.40625 1.5 1.15625q0.59375 0.734375 0.921875 1.796875q0.328125 1.046875 0.328125 2.234375q0 2.84375 -1.40625 4.40625q-1.40625 1.546875 -3.375 1.546875q-1.953125 0 -3.0625 -1.640625l0 1.390625zm-0.03125 -5.609375q0 1.984375 0.546875 2.875q0.890625 1.4375 2.390625 1.4375q1.234375 0 2.125 -1.0625q0.90625 -1.0625 0.90625 -3.1875q0 -2.15625 -0.859375 -3.1875q-0.859375 -1.03125 -2.078125 -1.03125q-1.234375 0 -2.140625 1.0625q-0.890625 1.0625 -0.890625 3.09375zm25.943588 -3.375l-10.078125 0l0 -1.734375l10.078125 0l0 1.734375zm0 4.640625l-10.078125 0l0 -1.75l10.078125 0l0 1.75zm17.849686 2.546875l0 1.796875l-10.09375 0q-0.015625 -0.671875 0.21875 -1.296875q0.390625 -1.03125 1.234375 -2.03125q0.859375 -1.0 2.453125 -2.3125q2.5 -2.046875 3.375 -3.234375q0.875 -1.203125 0.875 -2.25q0 -1.125 -0.796875 -1.890625q-0.796875 -0.765625 -2.078125 -0.765625q-1.359375 0 -2.171875 0.8125q-0.8125 0.8125 -0.828125 2.25l-1.921875 -0.1875q0.203125 -2.15625 1.484375 -3.28125q1.296875 -1.140625 3.46875 -1.140625q2.203125 0 3.484375 1.21875q1.28125 1.21875 1.28125 3.015625q0 0.921875 -0.375 1.8125q-0.375 0.875 -1.25 1.859375q-0.859375 0.96875 -2.890625 2.6875q-1.6875 1.40625 -2.171875 1.921875q-0.46875 0.5 -0.78125 1.015625l7.484375 0z" fill-rule="nonzero"/><path fill="#000000" fill-opacity="0.0" d="m288.12936 148.05748l-133.6693 104.031494" fill-rule="evenodd"/><path stroke="#ff0000" stroke-width="2.0" stroke-linejoin="round" stroke-linecap="butt" d="m288.12933 148.05748l-124.199326 96.66127" fill-rule="evenodd"/><path fill="#ff0000" stroke="#ff0000" stroke-width="2.0" stroke-linecap="butt" d="m161.90108 242.11179l-5.1336517 8.181427l9.191528 -2.9674988z" fill-rule="evenodd"/><path fill="#000000" fill-opacity="0.0" d="m322.53806 151.83727l122.23624 96.47244" fill-rule="evenodd"/><path stroke="#ff0000" stroke-width="2.0" stroke-linejoin="round" stroke-linecap="butt" d="m322.53806 151.83727l112.81653 89.03813" fill-rule="evenodd"/><path fill="#ff0000" stroke="#ff0000" stroke-width="2.0" stroke-linecap="butt" d="m433.30798 243.46854l9.171173 3.0298004l-5.078003 -8.21608z" fill-rule="evenodd"/><path fill="#000000" fill-opacity="0.0" d="m129.6569 290.9551l-53.984245 89.60632" fill-rule="evenodd"/><path stroke="#ff0000" stroke-width="2.0" stroke-linejoin="round" stroke-linecap="butt" d="m129.65692 290.9551l-47.791725 79.327576" fill-rule="evenodd"/><path fill="#ff0000" stroke="#ff0000" stroke-width="2.0" stroke-linecap="butt" d="m79.03557 368.57797l-1.8540955 9.479034l7.513344 -6.06958z" fill-rule="evenodd"/><path fill="#000000" fill-opacity="0.0" d="m0 295.7034l143.40158 0l0 45.259857l-143.40158 0z" fill-rule="evenodd"/><path fill="#ff0000" d="m17.578125 325.1834l0 -1.390625q-1.046875 1.640625 -3.09375 1.640625q-1.3125 0 -2.421875 -0.71875q-1.109375 -0.734375 -1.71875 -2.046875q-0.609375 -1.3125 -0.609375 -3.0q0 -1.65625 0.546875 -3.0q0.546875 -1.359375 1.65625 -2.078125q1.109375 -0.71875 2.46875 -0.71875q1.0 0 1.78125 0.421875q0.78125 0.421875 1.265625 1.09375l0 -5.46875l1.875 0l0 15.265625l-1.75 0zm-5.921875 -5.515625q0 2.125 0.890625 3.171875q0.90625 1.046875 2.125 1.046875q1.21875 0 2.078125 -1.0q0.859375 -1.0 0.859375 -3.0625q0 -2.28125 -0.875 -3.34375q-0.875 -1.0625 -2.15625 -1.0625q-1.25 0 -2.09375 1.03125q-0.828125 1.015625 -0.828125 3.21875zm17.830444 4.15625q-1.046875 0.875 -2.015625 1.25q-0.953125 0.359375 -2.0625 0.359375q-1.8125 0 -2.796875 -0.890625q-0.984375 -0.890625 -0.984375 -2.28125q0 -0.8125 0.375 -1.484375q0.375 -0.671875 0.96875 -1.078125q0.59375 -0.40625 1.34375 -0.609375q0.5625 -0.140625 1.671875 -0.28125q2.265625 -0.265625 3.34375 -0.640625q0.015625 -0.390625 0.015625 -0.5q0 -1.140625 -0.53125 -1.609375q-0.71875 -0.640625 -2.140625 -0.640625q-1.328125 0 -1.953125 0.46875q-0.625 0.46875 -0.9375 1.640625l-1.828125 -0.25q0.25 -1.171875 0.8125 -1.890625q0.578125 -0.734375 1.65625 -1.125q1.09375 -0.390625 2.515625 -0.390625q1.421875 0 2.296875 0.34375q0.890625 0.328125 1.3125 0.828125q0.421875 0.5 0.578125 1.28125q0.09375 0.46875 0.09375 1.71875l0 2.5q0 2.625 0.125 3.3125q0.125 0.6875 0.46875 1.328125l-1.953125 0q-0.296875 -0.578125 -0.375 -1.359375zm-0.15625 -4.1875q-1.015625 0.40625 -3.0625 0.703125q-1.15625 0.171875 -1.640625 0.375q-0.46875 0.203125 -0.734375 0.609375q-0.265625 0.40625 -0.265625 0.890625q0 0.75 0.5625 1.25q0.578125 0.5 1.671875 0.5q1.078125 0 1.921875 -0.46875q0.84375 -0.484375 1.25 -1.296875q0.296875 -0.640625 0.296875 -1.875l0 -0.6875zm3.3929443 5.8125l4.421875 -15.796875l1.5 0l-4.40625 15.796875l-1.515625 0zm14.503769 -0.265625l0 -1.390625q-1.046875 1.640625 -3.09375 1.640625q-1.3125 0 -2.421875 -0.71875q-1.109375 -0.734375 -1.71875 -2.046875q-0.609375 -1.3125 -0.609375 -3.0q0 -1.65625 0.546875 -3.0q0.546875 -1.359375 1.65625 -2.078125q1.109375 -0.71875 2.46875 -0.71875q1.0 0 1.78125 0.421875q0.78125 0.421875 1.265625 1.09375l0 -5.46875l1.875 0l0 15.265625l-1.75 0zm-5.921875 -5.515625q0 2.125 0.890625 3.171875q0.90625 1.046875 2.125 1.046875q1.21875 0 2.078125 -1.0q0.859375 -1.0 0.859375 -3.0625q0 -2.28125 -0.875 -3.34375q-0.875 -1.0625 -2.15625 -1.0625q-1.25 0 -2.09375 1.03125q-0.828125 1.015625 -0.828125 3.21875zm9.361694 5.515625l4.046875 -5.75l-3.75 -5.3125l2.34375 0l1.703125 2.59375q0.484375 0.734375 0.765625 1.234375q0.46875 -0.6875 0.84375 -1.21875l1.875 -2.609375l2.234375 0l-3.828125 5.203125l4.125 5.859375l-2.3125 0l-2.265625 -3.4375l-0.609375 -0.921875l-2.90625 4.359375l-2.265625 0zm27.699081 -8.984375l-10.078125 0l0 -1.734375l10.078125 0l0 1.734375zm0 4.640625l-10.078125 0l0 -1.75l10.078125 0l0 1.75zm15.068436 4.34375l-1.875 0l0 -11.9375q-0.6875 0.640625 -1.78125 1.28125q-1.09375 0.640625 -1.96875 0.96875l0 -1.8125q1.5625 -0.734375 2.734375 -1.78125q1.1875 -1.0625 1.671875 -2.046875l1.21875 0l0 15.328125z" fill-rule="nonzero"/><path fill="#000000" fill-opacity="0.0" d="m185.2336 295.5013l143.40157 0l0 45.259857l-143.40157 0z" fill-rule="evenodd"/><path fill="#ff0000" d="m202.81172 324.98132l0 -1.390625q-1.046875 1.640625 -3.09375 1.640625q-1.3125 0 -2.421875 -0.71875q-1.109375 -0.734375 -1.71875 -2.046875q-0.609375 -1.3125 -0.609375 -3.0q0 -1.65625 0.546875 -3.0q0.546875 -1.359375 1.65625 -2.078125q1.109375 -0.71875 2.46875 -0.71875q1.0 0 1.78125 0.421875q0.78125 0.421875 1.265625 1.09375l0 -5.46875l1.875 0l0 15.265625l-1.75 0zm-5.921875 -5.515625q0 2.125 0.890625 3.171875q0.90625 1.046875 2.125 1.046875q1.21875 0 2.078125 -1.0q0.859375 -1.0 0.859375 -3.0625q0 -2.28125 -0.875 -3.34375q-0.875 -1.0625 -2.15625 -1.0625q-1.25 0 -2.09375 1.03125q-0.828125 1.015625 -0.828125 3.21875zm17.830444 4.15625q-1.046875 0.875 -2.015625 1.25q-0.953125 0.359375 -2.0625 0.359375q-1.8125 0 -2.796875 -0.890625q-0.984375 -0.890625 -0.984375 -2.28125q0 -0.8125 0.375 -1.484375q0.375 -0.671875 0.96875 -1.078125q0.59375 -0.40625 1.34375 -0.609375q0.5625 -0.140625 1.671875 -0.28125q2.265625 -0.265625 3.34375 -0.640625q0.015625 -0.390625 0.015625 -0.5q0 -1.140625 -0.53125 -1.609375q-0.71875 -0.640625 -2.140625 -0.640625q-1.328125 0 -1.953125 0.46875q-0.625 0.46875 -0.9375 1.640625l-1.828125 -0.25q0.25 -1.171875 0.8125 -1.890625q0.578125 -0.734375 1.65625 -1.125q1.09375 -0.390625 2.515625 -0.390625q1.421875 0 2.296875 0.34375q0.890625 0.328125 1.3125 0.828125q0.421875 0.5 0.578125 1.28125q0.09375 0.46875 0.09375 1.71875l0 2.5q0 2.625 0.125 3.3125q0.125 0.6875 0.46875 1.328125l-1.953125 0q-0.296875 -0.578125 -0.375 -1.359375zm-0.15625 -4.1875q-1.015625 0.40625 -3.0625 0.703125q-1.15625 0.171875 -1.640625 0.375q-0.46875 0.203125 -0.734375 0.609375q-0.265625 0.40625 -0.265625 0.890625q0 0.75 0.5625 1.25q0.578125 0.5 1.671875 0.5q1.078125 0 1.921875 -0.46875q0.84375 -0.484375 1.25 -1.296875q0.296875 -0.640625 0.296875 -1.875l0 -0.6875zm3.3929443 5.8125l4.421875 -15.796875l1.5 0l-4.40625 15.796875l-1.515625 0zm14.503769 -0.265625l0 -1.390625q-1.046875 1.640625 -3.09375 1.640625q-1.3125 0 -2.421875 -0.71875q-1.109375 -0.734375 -1.71875 -2.046875q-0.609375 -1.3125 -0.609375 -3.0q0 -1.65625 0.546875 -3.0q0.546875 -1.359375 1.65625 -2.078125q1.109375 -0.71875 2.46875 -0.71875q1.0 0 1.78125 0.421875q0.78125 0.421875 1.265625 1.09375l0 -5.46875l1.875 0l0 15.265625l-1.75 0zm-5.921875 -5.515625q0 2.125 0.890625 3.171875q0.90625 1.046875 2.125 1.046875q1.21875 0 2.078125 -1.0q0.859375 -1.0 0.859375 -3.0625q0 -2.28125 -0.875 -3.34375q-0.875 -1.0625 -2.15625 -1.0625q-1.25 0 -2.09375 1.03125q-0.828125 1.015625 -0.828125 3.21875zm10.533569 9.78125l-0.21875 -1.765625q0.625 0.171875 1.078125 0.171875q0.625 0 1.0 -0.21875q0.375 -0.203125 0.609375 -0.578125q0.1875 -0.28125 0.578125 -1.390625q0.046875 -0.15625 0.171875 -0.46875l-4.203125 -11.078125l2.015625 0l2.3125 6.40625q0.4375 1.21875 0.796875 2.5625q0.328125 -1.296875 0.765625 -2.515625l2.375 -6.453125l1.875 0l-4.21875 11.25q-0.671875 1.828125 -1.046875 2.515625q-0.5 0.921875 -1.15625 1.34375q-0.640625 0.4375 -1.53125 0.4375q-0.546875 0 -1.203125 -0.21875zm26.527191 -13.25l-10.07811 0l0 -1.734375l10.07811 0l0 1.734375zm0 4.640625l-10.07811 0l0 -1.75l10.07811 0l0 1.75zm15.068451 4.34375l-1.875 0l0 -11.9375q-0.6875 0.640625 -1.78125 1.28125q-1.09375 0.640625 -1.96875 0.96875l0 -1.8125q1.5625 -0.734375 2.734375 -1.78125q1.1875 -1.0625 1.671875 -2.046875l1.21875 0l0 15.328125z" fill-rule="nonzero"/><path fill="#000000" fill-opacity="0.0" d="m320.66928 294.1483l143.40158 0l0 45.259857l-143.40158 0z" fill-rule="evenodd"/><path fill="#ff0000" d="m338.2474 323.6283l0 -1.390625q-1.046875 1.640625 -3.09375 1.640625q-1.3125 0 -2.421875 -0.71875q-1.109375 -0.734375 -1.71875 -2.046875q-0.609375 -1.3125 -0.609375 -3.0q0 -1.65625 0.546875 -3.0q0.546875 -1.359375 1.65625 -2.078125q1.109375 -0.71875 2.46875 -0.71875q1.0 0 1.78125 0.421875q0.78125 0.421875 1.265625 1.09375l0 -5.46875l1.875 0l0 15.265625l-1.75 0zm-5.921875 -5.515625q0 2.125 0.890625 3.171875q0.90625 1.046875 2.125 1.046875q1.21875 0 2.078125 -1.0q0.859375 -1.0 0.859375 -3.0625q0 -2.28125 -0.875 -3.34375q-0.875 -1.0625 -2.15625 -1.0625q-1.25 0 -2.09375 1.03125q-0.828125 1.015625 -0.828125 3.21875zm12.346069 5.515625l-1.75 0l0 -15.265625l1.875 0l0 5.4375q1.1875 -1.484375 3.03125 -1.484375q1.03125 0 1.9375 0.421875q0.90625 0.40625 1.5 1.15625q0.59375 0.734375 0.921875 1.796875q0.328125 1.046875 0.328125 2.234375q0 2.84375 -1.40625 4.40625q-1.40625 1.546875 -3.375 1.546875q-1.953125 0 -3.0625 -1.640625l0 1.390625zm-0.03125 -5.609375q0 1.984375 0.546875 2.875q0.890625 1.4375 2.390625 1.4375q1.234375 0 2.125 -1.0625q0.90625 -1.0625 0.90625 -3.1875q0 -2.15625 -0.859375 -3.1875q-0.859375 -1.03125 -2.078125 -1.03125q-1.234375 0 -2.140625 1.0625q-0.890625 1.0625 -0.890625 3.09375zm8.752319 5.875l4.421875 -15.796875l1.5 0l-4.40625 15.796875l-1.515625 0zm14.503784 -0.265625l0 -1.390625q-1.046875 1.640625 -3.09375 1.640625q-1.3125 0 -2.421875 -0.71875q-1.109375 -0.734375 -1.71875 -2.046875q-0.609375 -1.3125 -0.609375 -3.0q0 -1.65625 0.546875 -3.0q0.546875 -1.359375 1.65625 -2.078125q1.109375 -0.71875 2.46875 -0.71875q1.0 0 1.78125 0.421875q0.78125 0.421875 1.265625 1.09375l0 -5.46875l1.875 0l0 15.265625l-1.75 0zm-5.921875 -5.515625q0 2.125 0.890625 3.171875q0.90625 1.046875 2.125 1.046875q1.21875 0 2.078125 -1.0q0.859375 -1.0 0.859375 -3.0625q0 -2.28125 -0.875 -3.34375q-0.875 -1.0625 -2.15625 -1.0625q-1.25 0 -2.09375 1.03125q-0.828125 1.015625 -0.828125 3.21875zm9.361694 5.515625l4.046875 -5.75l-3.75 -5.3125l2.34375 0l1.703125 2.59375q0.484375 0.734375 0.765625 1.234375q0.46875 -0.6875 0.84375 -1.21875l1.875 -2.609375l2.234375 0l-3.828125 5.203125l4.125 5.859375l-2.3125 0l-2.265625 -3.4375l-0.609375 -0.921875l-2.90625 4.359375l-2.265625 0zm27.699066 -8.984375l-10.078125 0l0 -1.734375l10.078125 0l0 1.734375zm0 4.640625l-10.078125 0l0 -1.75l10.078125 0l0 1.75zm15.068451 4.34375l-1.875 0l0 -11.9375q-0.6875 0.640625 -1.78125 1.28125q-1.09375 0.640625 -1.96875 0.96875l0 -1.8125q1.5625 -0.734375 2.734375 -1.78125q1.1875 -1.0625 1.671875 -2.046875l1.21875 0l0 15.328125z" fill-rule="nonzero"/><path fill="#000000" fill-opacity="0.0" d="m429.96515 290.9551l-18.677185 81.63782" fill-rule="evenodd"/><path stroke="#ff0000" stroke-width="2.0" stroke-linejoin="round" stroke-linecap="butt" d="m429.96515 290.9551l-16.000946 69.94006" fill-rule="evenodd"/><path fill="#ff0000" stroke="#ff0000" stroke-width="2.0" stroke-linecap="butt" d="m410.74393 360.15842l1.196106 9.584351l5.244446 -8.11087z" fill-rule="evenodd"/><path fill="#000000" fill-opacity="0.0" d="m567.62994 223.22835l-88.44098 31.118103" fill-rule="evenodd"/><path stroke="#000000" stroke-width="1.0" stroke-linejoin="round" stroke-linecap="butt" stroke-dasharray="1.0,3.0" d="m567.62994 223.22835l-82.7811 29.126678" fill-rule="evenodd"/><path fill="#000000" stroke="#000000" stroke-width="1.0" stroke-linecap="butt" d="m484.30063 250.79692l-3.7326355 3.0643158l4.829071 0.051879883z" fill-rule="evenodd"/><path fill="#000000" fill-opacity="0.0" d="m568.1391 183.979l183.24408 0l0 42.015747l-183.24408 0z" fill-rule="evenodd"/><path fill="#000000" d="m584.6391 210.899l0 -1.21875q-0.90625 1.4375 -2.703125 1.4375q-1.15625 0 -2.125 -0.640625q-0.96875 -0.640625 -1.5 -1.78125q-0.53125 -1.140625 -0.53125 -2.625q0 -1.453125 0.484375 -2.625q0.484375 -1.1875 1.4375 -1.8125q0.96875 -0.625 2.171875 -0.625q0.875 0 1.546875 0.375q0.6875 0.359375 1.109375 0.953125l0 -4.796875l1.640625 0l0 13.359375l-1.53125 0zm-5.171875 -4.828125q0 1.859375 0.78125 2.78125q0.78125 0.921875 1.84375 0.921875q1.078125 0 1.828125 -0.875q0.75 -0.890625 0.75 -2.6875q0 -1.984375 -0.765625 -2.90625q-0.765625 -0.9375 -1.890625 -0.9375q-1.078125 0 -1.8125 0.890625q-0.734375 0.890625 -0.734375 2.8125zm12.406982 8.75q-1.359375 -1.703125 -2.296875 -4.0q-0.9375 -2.296875 -0.9375 -4.765625q0 -2.15625 0.703125 -4.140625q0.828125 -2.3125 2.53125 -4.59375l1.171875 0q-1.09375 1.890625 -1.453125 2.703125q-0.546875 1.25 -0.875 2.625q-0.390625 1.703125 -0.390625 3.421875q0 4.375 2.71875 8.75l-1.171875 0zm2.4313965 -6.8125l1.625 -0.25q0.125 0.96875 0.75 1.5q0.625 0.515625 1.75 0.515625q1.125 0 1.671875 -0.453125q0.546875 -0.46875 0.546875 -1.09375q0 -0.546875 -0.484375 -0.875q-0.328125 -0.21875 -1.671875 -0.546875q-1.8125 -0.46875 -2.515625 -0.796875q-0.6875 -0.328125 -1.046875 -0.90625q-0.359375 -0.59375 -0.359375 -1.3125q0 -0.640625 0.296875 -1.1875q0.296875 -0.5625 0.8125 -0.921875q0.375 -0.28125 1.03125 -0.46875q0.671875 -0.203125 1.421875 -0.203125q1.140625 0 2.0 0.328125q0.859375 0.328125 1.265625 0.890625q0.421875 0.5625 0.578125 1.5l-1.609375 0.21875q-0.109375 -0.75 -0.640625 -1.171875q-0.515625 -0.421875 -1.46875 -0.421875q-1.140625 0 -1.625 0.375q-0.46875 0.375 -0.46875 0.875q0 0.3125 0.1875 0.578125q0.203125 0.265625 0.640625 0.4375q0.234375 0.09375 1.4375 0.421875q1.75 0.453125 2.4375 0.75q0.6875 0.296875 1.078125 0.859375q0.390625 0.5625 0.390625 1.40625q0 0.828125 -0.484375 1.546875q-0.46875 0.71875 -1.375 1.125q-0.90625 0.390625 -2.046875 0.390625q-1.875 0 -2.875 -0.78125q-0.984375 -0.78125 -1.25 -2.328125zm16.3125 2.890625l0 -1.421875q-1.125 1.640625 -3.0625 1.640625q-0.859375 0 -1.609375 -0.328125q-0.734375 -0.328125 -1.09375 -0.828125q-0.359375 -0.5 -0.5 -1.21875q-0.109375 -0.46875 -0.109375 -1.53125l0 -5.984375l1.640625 0l0 5.359375q0 1.28125 0.109375 1.734375q0.15625 0.640625 0.65625 1.015625q0.5 0.375 1.234375 0.375q0.734375 0 1.375 -0.375q0.65625 -0.390625 0.921875 -1.03125q0.265625 -0.65625 0.265625 -1.890625l0 -5.1875l1.640625 0l0 9.671875l-1.46875 0zm4.0476074 0l0 -9.671875l1.46875 0l0 1.359375q0.453125 -0.71875 1.203125 -1.140625q0.765625 -0.4375 1.71875 -0.4375q1.078125 0 1.765625 0.453125q0.6875 0.4375 0.96875 1.234375q1.15625 -1.6875 2.984375 -1.6875q1.453125 0 2.21875 0.796875q0.78125 0.796875 0.78125 2.453125l0 6.640625l-1.640625 0l0 -6.09375q0 -0.984375 -0.15625 -1.40625q-0.15625 -0.4375 -0.578125 -0.703125q-0.421875 -0.265625 -0.984375 -0.265625q-1.015625 0 -1.6875 0.6875q-0.671875 0.671875 -0.671875 2.15625l0 5.625l-1.640625 0l0 -6.28125q0 -1.09375 -0.40625 -1.640625q-0.40625 -0.546875 -1.3125 -0.546875q-0.6875 0 -1.28125 0.359375q-0.59375 0.359375 -0.859375 1.0625q-0.25 0.703125 -0.25 2.03125l0 5.015625l-1.640625 0zm15.5408325 0l0 -9.671875l1.46875 0l0 1.359375q0.453125 -0.71875 1.203125 -1.140625q0.765625 -0.4375 1.71875 -0.4375q1.078125 0 1.765625 0.453125q0.6875 0.4375 0.96875 1.234375q1.15625 -1.6875 2.984375 -1.6875q1.453125 0 2.21875 0.796875q0.78125 0.796875 0.78125 2.453125l0 6.640625l-1.640625 0l0 -6.09375q0 -0.984375 -0.15625 -1.40625q-0.15625 -0.4375 -0.578125 -0.703125q-0.421875 -0.265625 -0.984375 -0.265625q-1.015625 0 -1.6875 0.6875q-0.671875 0.671875 -0.671875 2.15625l0 5.625l-1.640625 0l0 -6.28125q0 -1.09375 -0.40625 -1.640625q-0.40625 -0.546875 -1.3125 -0.546875q-0.6875 0 -1.28125 0.359375q-0.59375 0.359375 -0.859375 1.0625q-0.25 0.703125 -0.25 2.03125l0 5.015625l-1.640625 0zm21.853271 -1.1875q-0.921875 0.765625 -1.765625 1.09375q-0.828125 0.3125 -1.796875 0.3125q-1.59375 0 -2.453125 -0.78125q-0.859375 -0.78125 -0.859375 -1.984375q0 -0.71875 0.328125 -1.296875q0.328125 -0.59375 0.84375 -0.9375q0.53125 -0.359375 1.1875 -0.546875q0.46875 -0.125 1.453125 -0.25q1.984375 -0.234375 2.921875 -0.5625q0.015625 -0.34375 0.015625 -0.421875q0 -1.0 -0.46875 -1.421875q-0.625 -0.546875 -1.875 -0.546875q-1.15625 0 -1.703125 0.40625q-0.546875 0.40625 -0.8125 1.421875l-1.609375 -0.21875q0.21875 -1.015625 0.71875 -1.640625q0.5 -0.640625 1.453125 -0.984375q0.953125 -0.34375 2.1875 -0.34375q1.25 0 2.015625 0.296875q0.78125 0.28125 1.140625 0.734375q0.375 0.4375 0.515625 1.109375q0.078125 0.421875 0.078125 1.515625l0 2.1875q0 2.28125 0.109375 2.890625q0.109375 0.59375 0.40625 1.15625l-1.703125 0q-0.265625 -0.515625 -0.328125 -1.1875zm-0.140625 -3.671875q-0.890625 0.375 -2.671875 0.625q-1.015625 0.140625 -1.4375 0.328125q-0.421875 0.1875 -0.65625 0.53125q-0.21875 0.34375 -0.21875 0.78125q0 0.65625 0.5 1.09375q0.5 0.4375 1.453125 0.4375q0.9375 0 1.671875 -0.40625q0.75 -0.421875 1.09375 -1.140625q0.265625 -0.5625 0.265625 -1.640625l0 -0.609375zm7.7819824 3.390625l0.234375 1.453125q-0.6875 0.140625 -1.234375 0.140625q-0.890625 0 -1.390625 -0.28125q-0.484375 -0.28125 -0.6875 -0.734375q-0.203125 -0.46875 -0.203125 -1.9375l0 -5.578125l-1.203125 0l0 -1.265625l1.203125 0l0 -2.390625l1.625 -0.984375l0 3.375l1.65625 0l0 1.265625l-1.65625 0l0 5.671875q0 0.6875 0.078125 0.890625q0.09375 0.203125 0.28125 0.328125q0.203125 0.109375 0.578125 0.109375q0.265625 0 0.71875 -0.0625zm1.6051636 -10.0l0 -1.890625l1.640625 0l0 1.890625l-1.640625 0zm0 11.46875l0 -9.671875l1.640625 0l0 9.671875l-1.640625 0zm3.5354614 -4.84375q0 -2.6875 1.484375 -3.96875q1.25 -1.078125 3.046875 -1.078125q2.0 0 3.265625 1.3125q1.265625 1.296875 1.265625 3.609375q0 1.859375 -0.5625 2.9375q-0.5625 1.0625 -1.640625 1.65625q-1.0625 0.59375 -2.328125 0.59375q-2.03125 0 -3.28125 -1.296875q-1.25 -1.3125 -1.25 -3.765625zm1.6875 0q0 1.859375 0.796875 2.796875q0.8125 0.921875 2.046875 0.921875q1.21875 0 2.03125 -0.921875q0.8125 -0.9375 0.8125 -2.84375q0 -1.796875 -0.8125 -2.71875q-0.8125 -0.921875 -2.03125 -0.921875q-1.234375 0 -2.046875 0.921875q-0.796875 0.90625 -0.796875 2.765625zm9.297607 4.84375l0 -9.671875l1.46875 0l0 1.375q1.0625 -1.59375 3.078125 -1.59375q0.875 0 1.609375 0.3125q0.734375 0.3125 1.09375 0.828125q0.375 0.5 0.515625 1.203125q0.09375 0.453125 0.09375 1.59375l0 5.953125l-1.640625 0l0 -5.890625q0 -1.0 -0.203125 -1.484375q-0.1875 -0.5 -0.671875 -0.796875q-0.484375 -0.296875 -1.140625 -0.296875q-1.046875 0 -1.8125 0.671875q-0.75 0.65625 -0.75 2.515625l0 5.28125l-1.640625 0zm11.453796 3.921875l-1.1875 0q2.734375 -4.375 2.734375 -8.75q0 -1.71875 -0.390625 -3.390625q-0.3125 -1.375 -0.875 -2.625q-0.359375 -0.828125 -1.46875 -2.734375l1.1875 0q1.703125 2.28125 2.53125 4.59375q0.6875 1.984375 0.6875 4.140625q0 2.46875 -0.9375 4.765625q-0.9375 2.296875 -2.28125 4.0zm18.942871 -11.78125l-8.828125 0l0 -1.515625l8.828125 0l0 1.515625zm0 4.0625l-8.828125 0l0 -1.53125l8.828125 0l0 1.53125zm13.171997 3.796875l-1.640625 0l0 -10.453125q-0.59375 0.5625 -1.5625 1.140625q-0.953125 0.5625 -1.71875 0.84375l0 -1.59375q1.375 -0.640625 2.40625 -1.5625q1.03125 -0.921875 1.453125 -1.78125l1.0625 0l0 13.40625z" fill-rule="nonzero"/><path fill="#000000" fill-opacity="0.0" d="m494.93176 21.070866l-89.51181 -0.12598419" fill-rule="evenodd"/><path stroke="#000000" stroke-width="1.0" stroke-linejoin="round" stroke-linecap="butt" stroke-dasharray="1.0,3.0" d="m494.93176 21.070866l-83.51181 -0.11754036" fill-rule="evenodd"/><path fill="#000000" stroke="#000000" stroke-width="1.0" stroke-linecap="butt" d="m411.42227 19.301596l-4.540436 1.6453438l4.5357666 1.6581173z" fill-rule="evenodd"/><path fill="#000000" fill-opacity="0.0" d="m507.88715 0l171.27557 0l0 42.015747l-171.27557 0z" fill-rule="evenodd"/><path fill="#000000" d="m519.4028 15.810623l0 1.90625l-1.765625 0l0 -1.515625q0 -1.21875 0.296875 -1.765625q0.390625 -0.71875 1.21875 -1.09375l0.390625 0.640625q-0.5 0.203125 -0.734375 0.625q-0.234375 0.40625 -0.265625 1.203125l0.859375 0zm2.828125 0l0 1.90625l-1.765625 0l0 -1.515625q0 -1.21875 0.296875 -1.765625q0.375 -0.71875 1.203125 -1.09375l0.40625 0.640625q-0.5 0.203125 -0.734375 0.625q-0.234375 0.40625 -0.265625 1.203125l0.859375 0zm1.7126465 6.8125l1.65625 -0.140625q0.125 1.0 0.546875 1.640625q0.4375 0.640625 1.34375 1.046875q0.921875 0.390625 2.0625 0.390625q1.0 0 1.78125 -0.296875q0.78125 -0.296875 1.15625 -0.8125q0.375 -0.53125 0.375 -1.15625q0 -0.625 -0.375 -1.09375q-0.359375 -0.46875 -1.1875 -0.796875q-0.546875 -0.203125 -2.390625 -0.640625q-1.828125 -0.453125 -2.5625 -0.84375q-0.96875 -0.5 -1.4375 -1.234375q-0.46875 -0.75 -0.46875 -1.671875q0 -1.0 0.578125 -1.875q0.578125 -0.890625 1.671875 -1.34375q1.109375 -0.453125 2.453125 -0.453125q1.484375 0 2.609375 0.484375q1.140625 0.46875 1.75 1.40625q0.609375 0.921875 0.65625 2.09375l-1.6875 0.125q-0.140625 -1.265625 -0.9375 -1.90625q-0.78125 -0.65625 -2.3125 -0.65625q-1.609375 0 -2.34375 0.59375q-0.734375 0.59375 -0.734375 1.421875q0 0.71875 0.53125 1.171875q0.5 0.46875 2.65625 0.96875q2.15625 0.484375 2.953125 0.84375q1.171875 0.53125 1.71875 1.359375q0.5625 0.828125 0.5625 1.90625q0 1.0625 -0.609375 2.015625q-0.609375 0.9375 -1.75 1.46875q-1.140625 0.515625 -2.578125 0.515625q-1.8125 0 -3.046875 -0.53125q-1.21875 -0.53125 -1.921875 -1.59375q-0.6875 -1.0625 -0.71875 -2.40625zm19.459229 1.1875l1.6875 0.203125q-0.40625 1.484375 -1.484375 2.3125q-1.078125 0.8125 -2.765625 0.8125q-2.125 0 -3.375 -1.296875q-1.234375 -1.3125 -1.234375 -3.671875q0 -2.453125 1.25 -3.796875q1.265625 -1.34375 3.265625 -1.34375q1.9375 0 3.15625 1.328125q1.234375 1.3125 1.234375 3.703125q0 0.15625 0 0.4375l-7.21875 0q0.09375 1.59375 0.90625 2.453125q0.8125 0.84375 2.015625 0.84375q0.90625 0 1.546875 -0.46875q0.640625 -0.484375 1.015625 -1.515625zm-5.390625 -2.65625l5.40625 0q-0.109375 -1.21875 -0.625 -1.828125q-0.78125 -0.953125 -2.03125 -0.953125q-1.125 0 -1.90625 0.765625q-0.765625 0.75 -0.84375 2.015625zm12.719482 4.296875l0.234375 1.453125q-0.6875 0.140625 -1.234375 0.140625q-0.890625 0 -1.390625 -0.28125q-0.484375 -0.28125 -0.6875 -0.734375q-0.203125 -0.46875 -0.203125 -1.9375l0 -5.578125l-1.203125 0l0 -1.265625l1.203125 0l0 -2.390625l1.625 -0.984375l0 3.375l1.65625 0l0 1.265625l-1.65625 0l0 5.671875q0 0.6875 0.078125 0.890625q0.09375 0.203125 0.28125 0.328125q0.203125 0.109375 0.578125 0.109375q0.265625 0 0.71875 -0.0625zm6.132202 -1.421875l1.625 -0.25q0.125 0.96875 0.75 1.5q0.625 0.515625 1.75 0.515625q1.125 0 1.671875 -0.453125q0.546875 -0.46875 0.546875 -1.09375q0 -0.546875 -0.484375 -0.875q-0.328125 -0.21875 -1.671875 -0.546875q-1.8125 -0.46875 -2.515625 -0.796875q-0.6875 -0.328125 -1.046875 -0.90625q-0.359375 -0.59375 -0.359375 -1.3125q0 -0.640625 0.296875 -1.1875q0.296875 -0.5625 0.8125 -0.921875q0.375 -0.28125 1.03125 -0.46875q0.671875 -0.203125 1.421875 -0.203125q1.140625 0 2.0 0.328125q0.859375 0.328125 1.265625 0.890625q0.421875 0.5625 0.578125 1.5l-1.609375 0.21875q-0.109375 -0.75 -0.640625 -1.171875q-0.515625 -0.421875 -1.46875 -0.421875q-1.140625 0 -1.625 0.375q-0.46875 0.375 -0.46875 0.875q0 0.3125 0.1875 0.578125q0.203125 0.265625 0.640625 0.4375q0.234375 0.09375 1.4375 0.421875q1.75 0.453125 2.4375 0.75q0.6875 0.296875 1.078125 0.859375q0.390625 0.5625 0.390625 1.40625q0 0.828125 -0.484375 1.546875q-0.46875 0.71875 -1.375 1.125q-0.90625 0.390625 -2.046875 0.390625q-1.875 0 -2.875 -0.78125q-0.984375 -0.78125 -1.25 -2.328125zm16.609375 -0.21875l1.6875 0.203125q-0.40625 1.484375 -1.484375 2.3125q-1.078125 0.8125 -2.765625 0.8125q-2.125 0 -3.375 -1.296875q-1.234375 -1.3125 -1.234375 -3.671875q0 -2.453125 1.25 -3.796875q1.265625 -1.34375 3.265625 -1.34375q1.9375 0 3.15625 1.328125q1.234375 1.3125 1.234375 3.703125q0 0.15625 0 0.4375l-7.21875 0q0.09375 1.59375 0.90625 2.453125q0.8125 0.84375 2.015625 0.84375q0.90625 0 1.546875 -0.46875q0.640625 -0.484375 1.015625 -1.515625zm-5.390625 -2.65625l5.40625 0q-0.109375 -1.21875 -0.625 -1.828125q-0.78125 -0.953125 -2.03125 -0.953125q-1.125 0 -1.90625 0.765625q-0.765625 0.75 -0.84375 2.015625zm15.766357 2.65625l1.6875 0.203125q-0.40625 1.484375 -1.484375 2.3125q-1.078125 0.8125 -2.765625 0.8125q-2.125 0 -3.375 -1.296875q-1.234375 -1.3125 -1.234375 -3.671875q0 -2.453125 1.25 -3.796875q1.265625 -1.34375 3.265625 -1.34375q1.9375 0 3.15625 1.328125q1.234375 1.3125 1.234375 3.703125q0 0.15625 0 0.4375l-7.21875 0q0.09375 1.59375 0.90625 2.453125q0.8125 0.84375 2.015625 0.84375q0.90625 0 1.546875 -0.46875q0.640625 -0.484375 1.015625 -1.515625zm-5.390625 -2.65625l5.40625 0q-0.109375 -1.21875 -0.625 -1.828125q-0.78125 -0.953125 -2.03125 -0.953125q-1.125 0 -1.90625 0.765625q-0.765625 0.75 -0.84375 2.015625zm15.406982 5.765625l0 -1.21875q-0.90625 1.4375 -2.703125 1.4375q-1.15625 0 -2.125 -0.640625q-0.96875 -0.640625 -1.5 -1.78125q-0.53125 -1.140625 -0.53125 -2.625q0 -1.453125 0.484375 -2.625q0.484375 -1.1875 1.4375 -1.8125q0.96875 -0.625 2.171875 -0.625q0.875 0 1.546875 0.375q0.6875 0.359375 1.109375 0.953125l0 -4.796875l1.640625 0l0 13.359375l-1.53125 0zm-5.171875 -4.828125q0 1.859375 0.78125 2.78125q0.78125 0.921875 1.84375 0.921875q1.078125 0 1.828125 -0.875q0.75 -0.890625 0.75 -2.6875q0 -1.984375 -0.765625 -2.90625q-0.765625 -0.9375 -1.890625 -0.9375q-1.078125 0 -1.8125 0.890625q-0.734375 0.890625 -0.734375 2.8125zm8.844421 -6.765625l0 -1.890625l1.75 0l0 1.5q0 1.21875 -0.28125 1.75q-0.390625 0.75 -1.21875 1.109375l-0.40625 -0.640625q0.5 -0.203125 0.734375 -0.625q0.25 -0.4375 0.28125 -1.203125l-0.859375 0zm2.8125 0l0 -1.890625l1.765625 0l0 1.5q0 1.21875 -0.28125 1.75q-0.390625 0.75 -1.21875 1.109375l-0.40625 -0.640625q0.5 -0.203125 0.734375 -0.625q0.25 -0.4375 0.265625 -1.203125l-0.859375 0zm12.599121 10.125l0.234375 1.453125q-0.6875 0.140625 -1.234375 0.140625q-0.890625 0 -1.390625 -0.28125q-0.484375 -0.28125 -0.6875 -0.734375q-0.203125 -0.46875 -0.203125 -1.9375l0 -5.578125l-1.203125 0l0 -1.265625l1.203125 0l0 -2.390625l1.625 -0.984375l0 3.375l1.65625 0l0 1.265625l-1.65625 0l0 5.671875q0 0.6875 0.078125 0.890625q0.09375 0.203125 0.28125 0.328125q0.203125 0.109375 0.578125 0.109375q0.265625 0 0.71875 -0.0625zm0.9957886 -3.375q0 -2.6875 1.484375 -3.96875q1.25 -1.078125 3.046875 -1.078125q2.0 0 3.265625 1.3125q1.265625 1.296875 1.265625 3.609375q0 1.859375 -0.5625 2.9375q-0.5625 1.0625 -1.640625 1.65625q-1.0625 0.59375 -2.328125 0.59375q-2.03125 0 -3.28125 -1.296875q-1.25 -1.3125 -1.25 -3.765625zm1.6875 0q0 1.859375 0.796875 2.796875q0.8125 0.921875 2.046875 0.921875q1.21875 0 2.03125 -0.921875q0.8125 -0.9375 0.8125 -2.84375q0 -1.796875 -0.8125 -2.71875q-0.8125 -0.921875 -2.03125 -0.921875q-1.234375 0 -2.046875 0.921875q-0.796875 0.90625 -0.796875 2.765625zm20.199646 4.84375l-1.640625 0l0 -10.453125q-0.59375 0.5625 -1.5625 1.140625q-0.953125 0.5625 -1.71875 0.84375l0 -1.59375q1.375 -0.640625 2.40625 -1.5625q1.03125 -0.921875 1.453125 -1.78125l1.0625 0l0 13.40625z" fill-rule="nonzero"/><path fill="#000000" fill-opacity="0.0" d="m491.59842 273.20734l359.11813 0l0 77.57483l-359.11813 0z" fill-rule="evenodd"/><path fill="#000000" d="m509.09842 293.3486l2.234375 0.71875q-0.515625 1.875 -1.71875 2.796875q-1.1875 0.90625 -3.03125 0.90625q-2.28125 0 -3.75 -1.5625q-1.46875 -1.5625 -1.46875 -4.265625q0 -2.859375 1.46875 -4.4375q1.484375 -1.59375 3.890625 -1.59375q2.09375 0 3.40625 1.25q0.78125 0.734375 1.171875 2.109375l-2.28125 0.546875q-0.203125 -0.890625 -0.859375 -1.40625q-0.640625 -0.515625 -1.5625 -0.515625q-1.265625 0 -2.0625 0.921875q-0.796875 0.90625 -0.796875 2.953125q0 2.171875 0.78125 3.09375q0.78125 0.921875 2.03125 0.921875q0.921875 0 1.578125 -0.578125q0.671875 -0.59375 0.96875 -1.859375zm6.398468 -7.234375l0 4.203125q1.0625 -1.234375 2.53125 -1.234375q0.765625 0 1.375 0.28125q0.609375 0.28125 0.90625 0.71875q0.3125 0.4375 0.421875 0.96875q0.125 0.53125 0.125 1.640625l0 4.875l-2.203125 0l0 -4.390625q0 -1.296875 -0.125 -1.640625q-0.125 -0.359375 -0.4375 -0.5625q-0.3125 -0.21875 -0.796875 -0.21875q-0.546875 0 -0.984375 0.265625q-0.421875 0.265625 -0.625 0.8125q-0.1875 0.53125 -0.1875 1.578125l0 4.15625l-2.203125 0l0 -11.453125l2.203125 0zm9.2265625 5.6875l-2.0 -0.359375q0.34375 -1.203125 1.15625 -1.78125q0.828125 -0.578125 2.4375 -0.578125q1.46875 0 2.1875 0.34375q0.71875 0.34375 1.015625 0.890625q0.296875 0.53125 0.296875 1.953125l-0.03125 2.5625q0 1.09375 0.109375 1.625q0.109375 0.515625 0.390625 1.109375l-2.171875 0q-0.078125 -0.21875 -0.203125 -0.65625q-0.0625 -0.1875 -0.078125 -0.25q-0.5625 0.546875 -1.203125 0.828125q-0.640625 0.265625 -1.375 0.265625q-1.28125 0 -2.015625 -0.6875q-0.734375 -0.703125 -0.734375 -1.765625q0 -0.703125 0.328125 -1.25q0.34375 -0.5625 0.9375 -0.84375q0.609375 -0.296875 1.75 -0.515625q1.546875 -0.296875 2.140625 -0.546875l0 -0.21875q0 -0.625 -0.3125 -0.890625q-0.3125 -0.28125 -1.1875 -0.28125q-0.578125 0 -0.90625 0.234375q-0.328125 0.234375 -0.53125 0.8125zm2.9375 1.78125q-0.421875 0.140625 -1.34375 0.34375q-0.90625 0.1875 -1.1875 0.375q-0.4375 0.296875 -0.4375 0.765625q0 0.46875 0.34375 0.8125q0.34375 0.328125 0.875 0.328125q0.59375 0 1.140625 -0.390625q0.390625 -0.296875 0.515625 -0.734375q0.09375 -0.28125 0.09375 -1.0625l0 -0.4375zm4.3203125 -5.4375l0 -2.03125l2.1875 0l0 2.03125l-2.1875 0zm0 9.421875l0 -8.296875l2.1875 0l0 8.296875l-2.1875 0zm11.9921875 0l-2.203125 0l0 -4.234375q0 -1.34375 -0.140625 -1.734375q-0.140625 -0.40625 -0.453125 -0.625q-0.3125 -0.21875 -0.765625 -0.21875q-0.5625 0 -1.015625 0.3125q-0.453125 0.3125 -0.625 0.828125q-0.171875 0.515625 -0.171875 1.90625l0 3.765625l-2.1875 0l0 -8.296875l2.03125 0l0 1.21875q1.09375 -1.40625 2.734375 -1.40625q0.734375 0 1.328125 0.265625q0.609375 0.25 0.90625 0.65625q0.3125 0.40625 0.4375 0.921875q0.125 0.515625 0.125 1.484375l0 5.15625zm8.765625 0l-2.1875 0l0 -8.296875l2.03125 0l0 1.171875q0.53125 -0.828125 0.9375 -1.09375q0.421875 -0.265625 0.953125 -0.265625q0.75 0 1.453125 0.40625l-0.6875 1.921875q-0.546875 -0.359375 -1.03125 -0.359375q-0.453125 0 -0.78125 0.25q-0.3125 0.25 -0.5 0.921875q-0.1875 0.65625 -0.1875 2.78125l0 2.5625zm9.5859375 0l0 -1.25q-0.453125 0.671875 -1.1875 1.0625q-0.734375 0.375 -1.5625 0.375q-0.828125 0 -1.5 -0.359375q-0.65625 -0.375 -0.953125 -1.03125q-0.296875 -0.671875 -0.296875 -1.84375l0 -5.25l2.1875 0l0 3.8125q0 1.75 0.125 2.140625q0.125 0.390625 0.4375 0.625q0.328125 0.234375 0.8125 0.234375q0.5625 0 1.0 -0.3125q0.453125 -0.3125 0.609375 -0.765625q0.171875 -0.453125 0.171875 -2.234375l0 -3.5l2.203125 0l0 8.296875l-2.046875 0zm4.3203125 0l0 -11.453125l2.1875 0l0 11.453125l-2.1875 0zm9.2421875 -2.640625l2.1875 0.359375q-0.421875 1.203125 -1.328125 1.84375q-0.90625 0.625 -2.28125 0.625q-2.15625 0 -3.203125 -1.421875q-0.8125 -1.125 -0.8125 -2.859375q0 -2.0625 1.078125 -3.21875q1.078125 -1.171875 2.71875 -1.171875q1.859375 0 2.921875 1.21875q1.078125 1.21875 1.03125 3.75l-5.5 0q0.015625 0.96875 0.515625 1.515625q0.515625 0.546875 1.28125 0.546875q0.515625 0 0.859375 -0.28125q0.359375 -0.28125 0.53125 -0.90625zm0.125 -2.21875q-0.015625 -0.953125 -0.484375 -1.453125q-0.46875 -0.5 -1.140625 -0.5q-0.71875 0 -1.1875 0.53125q-0.46875 0.515625 -0.46875 1.421875l3.28125 0zm4.3984375 -1.25l0 -2.1875l2.1875 0l0 2.1875l-2.1875 0zm0 6.109375l0 -2.203125l2.1875 0l0 2.203125l-2.1875 0z" fill-rule="nonzero"/><path fill="#ff0000" d="m507.03592 316.76736l0 -1.046875q-0.78125 1.234375 -2.3125 1.234375q-1.0 0 -1.828125 -0.546875q-0.828125 -0.546875 -1.296875 -1.53125q-0.453125 -0.984375 -0.453125 -2.25q0 -1.25 0.40625 -2.25q0.421875 -1.015625 1.25 -1.546875q0.828125 -0.546875 1.859375 -0.546875q0.75 0 1.328125 0.3125q0.59375 0.3125 0.953125 0.828125l0 -4.109375l1.40625 0l0 11.453125l-1.3125 0zm-4.4375 -4.140625q0 1.59375 0.671875 2.390625q0.671875 0.78125 1.578125 0.78125q0.921875 0 1.5625 -0.75q0.65625 -0.765625 0.65625 -2.3125q0 -1.703125 -0.65625 -2.5q-0.65625 -0.796875 -1.625 -0.796875q-0.9375 0 -1.5625 0.765625q-0.625 0.765625 -0.625 2.421875zm8.2890625 4.140625l0 -7.203125l-1.234375 0l0 -1.09375l1.234375 0l0 -0.890625q0 -0.828125 0.15625 -1.234375q0.203125 -0.546875 0.703125 -0.890625q0.5156555 -0.34375 1.4375305 -0.34375q0.59375 0 1.3125 0.140625l-0.203125 1.234375q-0.4375 -0.078125 -0.828125 -0.078125q-0.640625 0 -0.90625 0.28125q-0.265625 0.265625 -0.265625 1.015625l0 0.765625l1.609375 0l0 1.09375l-1.609375 0l0 7.203125l-1.4062805 0zm3.054718 0.203125l3.328125 -11.859375l1.125 0l-3.3125 11.859375l-1.140625 0zm10.8828125 -0.203125l0 -1.046875q-0.78125 1.234375 -2.3125 1.234375q-1.0 0 -1.828125 -0.546875q-0.828125 -0.546875 -1.296875 -1.53125q-0.453125 -0.984375 -0.453125 -2.25q0 -1.25 0.40625 -2.25q0.421875 -1.015625 1.25 -1.546875q0.828125 -0.546875 1.859375 -0.546875q0.75 0 1.328125 0.3125q0.59375 0.3125 0.953125 0.828125l0 -4.109375l1.40625 0l0 11.453125l-1.3125 0zm-4.4375 -4.140625q0 1.59375 0.671875 2.390625q0.671875 0.78125 1.578125 0.78125q0.921875 0 1.5625 -0.75q0.65625 -0.765625 0.65625 -2.3125q0 -1.703125 -0.65625 -2.5q-0.65625 -0.796875 -1.625 -0.796875q-0.9375 0 -1.5625 0.765625q-0.625 0.765625 -0.625 2.421875zm7.8984375 7.34375l-0.15625 -1.328125q0.453125 0.125 0.796875 0.125q0.46875 0 0.75 -0.15625q0.28125 -0.15625 0.46875 -0.4375q0.125 -0.203125 0.421875 -1.046875q0.046875 -0.109375 0.125 -0.34375l-3.140625 -8.3125l1.515625 0l1.71875 4.796875q0.34375 0.921875 0.609375 1.921875q0.234375 -0.96875 0.578125 -1.890625l1.765625 -4.828125l1.40625 0l-3.15625 8.4375q-0.5 1.375 -0.78125 1.890625q-0.375 0.6875 -0.859375 1.015625q-0.484375 0.328125 -1.15625 0.328125q-0.40625 0 -0.90625 -0.171875zm19.898438 -9.9375l-7.5625 0l0 -1.3125l7.5625 0l0 1.3125zm0 3.46875l-7.5625 0l0 -1.3125l7.5625 0l0 1.3125zm9.0859375 6.640625q-1.171875 -1.46875 -1.984375 -3.4375q-0.796875 -1.984375 -0.796875 -4.09375q0 -1.859375 0.609375 -3.5625q0.703125 -1.96875 2.171875 -3.9375l1.0 0q-0.9375 1.625 -1.25 2.328125q-0.46875 1.078125 -0.75 2.25q-0.328125 1.453125 -0.328125 2.9375q0 3.75 2.328125 7.515625l-1.0 0zm8.015625 -3.375l0 -1.046875q-0.78125 1.234375 -2.3125 1.234375q-1.0 0 -1.828125 -0.546875q-0.828125 -0.546875 -1.296875 -1.53125q-0.453125 -0.984375 -0.453125 -2.25q0 -1.25 0.40625 -2.25q0.421875 -1.015625 1.25 -1.546875q0.828125 -0.546875 1.859375 -0.546875q0.75 0 1.328125 0.3125q0.59375 0.3125 0.953125 0.828125l0 -4.109375l1.40625 0l0 11.453125l-1.3125 0zm-4.4375 -4.140625q0 1.59375 0.671875 2.390625q0.671875 0.78125 1.578125 0.78125q0.921875 0 1.5625 -0.75q0.65625 -0.765625 0.65625 -2.3125q0 -1.703125 -0.65625 -2.5q-0.65625 -0.796875 -1.625 -0.796875q-0.9375 0 -1.5625 0.765625q-0.625 0.765625 -0.625 2.421875zm8.2890625 4.140625l0 -7.203125l-1.234375 0l0 -1.09375l1.234375 0l0 -0.890625q0 -0.828125 0.15625 -1.234375q0.203125 -0.546875 0.703125 -0.890625q0.515625 -0.34375 1.4375 -0.34375q0.59375 0 1.3125 0.140625l-0.203125 1.234375q-0.4375 -0.078125 -0.828125 -0.078125q-0.640625 0 -0.90625 0.28125q-0.265625 0.265625 -0.265625 1.015625l0 0.765625l1.609375 0l0 1.09375l-1.609375 0l0 7.203125l-1.40625 0zm3.0546875 0.203125l3.328125 -11.859375l1.125 0l-3.3125 11.859375l-1.140625 0zm10.8828125 -0.203125l0 -1.046875q-0.78125 1.234375 -2.3125 1.234375q-1.0 0 -1.828125 -0.546875q-0.828125 -0.546875 -1.296875 -1.53125q-0.453125 -0.984375 -0.453125 -2.25q0 -1.25 0.40625 -2.25q0.421875 -1.015625 1.25 -1.546875q0.828125 -0.546875 1.859375 -0.546875q0.75 0 1.328125 0.3125q0.59375 0.3125 0.953125 0.828125l0 -4.109375l1.40625 0l0 11.453125l-1.3125 0zm-4.4375 -4.140625q0 1.59375 0.671875 2.390625q0.671875 0.78125 1.578125 0.78125q0.921875 0 1.5625 -0.75q0.65625 -0.765625 0.65625 -2.3125q0 -1.703125 -0.65625 -2.5q-0.65625 -0.796875 -1.625 -0.796875q-0.9375 0 -1.5625 0.765625q-0.625 0.765625 -0.625 2.421875zm13.3671875 3.109375q-0.78125 0.671875 -1.5 0.953125q-0.71875 0.265625 -1.546875 0.265625q-1.375 0 -2.109375 -0.671875q-0.734375 -0.671875 -0.734375 -1.703125q0 -0.609375 0.28125 -1.109375q0.28125 -0.515625 0.71875 -0.8125q0.453125 -0.3125 1.015625 -0.46875q0.421875 -0.109375 1.25 -0.203125q1.703125 -0.203125 2.515625 -0.484375q0 -0.296875 0 -0.375q0 -0.859375 -0.390625 -1.203125q-0.546875 -0.484375 -1.609375 -0.484375q-0.984375 0 -1.46875 0.359375q-0.46875 0.34375 -0.6875 1.21875l-1.375 -0.1875q0.1875 -0.875 0.609375 -1.421875q0.4375 -0.546875 1.25 -0.828125q0.8125 -0.296875 1.875 -0.296875q1.0625 0 1.71875 0.25q0.671875 0.25 0.984375 0.625q0.3125 0.375 0.4375 0.953125q0.078125 0.359375 0.078125 1.296875l0 1.875q0 1.96875 0.078125 2.484375q0.09375 0.515625 0.359375 1.0l-1.46875 0q-0.21875 -0.4375 -0.28125 -1.03125zm-0.109375 -3.140625q-0.765625 0.3125 -2.296875 0.53125q-0.875 0.125 -1.234375 0.28125q-0.359375 0.15625 -0.5625 0.46875q-0.1875 0.296875 -0.1875 0.65625q0 0.5625 0.421875 0.9375q0.4375 0.375 1.25 0.375q0.8125 0 1.4375 -0.34375q0.640625 -0.359375 0.9375 -0.984375q0.234375 -0.46875 0.234375 -1.40625l0 -0.515625zm4.5234375 7.546875l-1.015625 0q2.34375 -3.765625 2.34375 -7.515625q0 -1.46875 -0.34375 -2.921875q-0.265625 -1.171875 -0.734375 -2.25q-0.3125 -0.703125 -1.265625 -2.34375l1.015625 0q1.46875 1.96875 2.171875 3.9375q0.59375 1.703125 0.59375 3.5625q0 2.109375 -0.8125 4.09375q-0.796875 1.96875 -1.953125 3.4375zm3.84375 -12.734375l0.359375 -1.109375q1.25 0.4375 1.8125 0.765625q-0.15625 -1.421875 -0.15625 -1.953125l1.125 0q-0.015625 0.78125 -0.171875 1.9375q0.796875 -0.40625 1.84375 -0.75l0.359375 1.109375q-1.0 0.328125 -1.953125 0.4375q0.484375 0.421875 1.34375 1.484375l-0.9375 0.65625q-0.453125 -0.609375 -1.0625 -1.671875q-0.578125 1.09375 -1.015625 1.671875l-0.921875 -0.65625q0.90625 -1.125 1.296875 -1.484375q-1.015625 -0.1875 -1.921875 -0.4375zm9.4765625 12.734375q-1.171875 -1.46875 -1.984375 -3.4375q-0.796875 -1.984375 -0.796875 -4.09375q0 -1.859375 0.609375 -3.5625q0.703125 -1.96875 2.171875 -3.9375l1.0 0q-0.9375 1.625 -1.25 2.328125q-0.46875 1.078125 -0.75 2.25q-0.328125 1.453125 -0.328125 2.9375q0 3.75 2.328125 7.515625l-1.0 0zm8.015625 -3.375l0 -1.046875q-0.78125 1.234375 -2.3125 1.234375q-1.0 0 -1.828125 -0.546875q-0.828125 -0.546875 -1.296875 -1.53125q-0.453125 -0.984375 -0.453125 -2.25q0 -1.25 0.40625 -2.25q0.421875 -1.015625 1.25 -1.546875q0.828125 -0.546875 1.859375 -0.546875q0.75 0 1.328125 0.3125q0.59375 0.3125 0.953125 0.828125l0 -4.109375l1.40625 0l0 11.453125l-1.3125 0zm-4.4375 -4.140625q0 1.59375 0.671875 2.390625q0.671875 0.78125 1.578125 0.78125q0.921875 0 1.5625 -0.75q0.65625 -0.765625 0.65625 -2.3125q0 -1.703125 -0.65625 -2.5q-0.65625 -0.796875 -1.625 -0.796875q-0.9375 0 -1.5625 0.765625q-0.625 0.765625 -0.625 2.421875zm13.3671875 3.109375q-0.78125 0.671875 -1.5 0.953125q-0.71875 0.265625 -1.546875 0.265625q-1.375 0 -2.109375 -0.671875q-0.734375 -0.671875 -0.734375 -1.703125q0 -0.609375 0.28125 -1.109375q0.28125 -0.515625 0.71875 -0.8125q0.453125 -0.3125 1.015625 -0.46875q0.421875 -0.109375 1.25 -0.203125q1.703125 -0.203125 2.515625 -0.484375q0 -0.296875 0 -0.375q0 -0.859375 -0.390625 -1.203125q-0.546875 -0.484375 -1.609375 -0.484375q-0.984375 0 -1.46875 0.359375q-0.46875 0.34375 -0.6875 1.21875l-1.375 -0.1875q0.1875 -0.875 0.609375 -1.421875q0.4375 -0.546875 1.25 -0.828125q0.8125 -0.296875 1.875 -0.296875q1.0625 0 1.71875 0.25q0.671875 0.25 0.984375 0.625q0.3125 0.375 0.4375 0.953125q0.078125 0.359375 0.078125 1.296875l0 1.875q0 1.96875 0.078125 2.484375q0.09375 0.515625 0.359375 1.0l-1.46875 0q-0.21875 -0.4375 -0.28125 -1.03125zm-0.109375 -3.140625q-0.765625 0.3125 -2.296875 0.53125q-0.875 0.125 -1.234375 0.28125q-0.359375 0.15625 -0.5625 0.46875q-0.1875 0.296875 -0.1875 0.65625q0 0.5625 0.421875 0.9375q0.4375 0.375 1.25 0.375q0.8125 0 1.4375 -0.34375q0.640625 -0.359375 0.9375 -0.984375q0.234375 -0.46875 0.234375 -1.40625l0 -0.515625zm2.5390625 4.375l3.328125 -11.859375l1.125 0l-3.3125 11.859375l-1.140625 0zm10.8828125 -0.203125l0 -1.046875q-0.78125 1.234375 -2.3125 1.234375q-1.0 0 -1.828125 -0.546875q-0.828125 -0.546875 -1.296875 -1.53125q-0.453125 -0.984375 -0.453125 -2.25q0 -1.25 0.40625 -2.25q0.421875 -1.015625 1.25 -1.546875q0.828125 -0.546875 1.859375 -0.546875q0.75 0 1.328125 0.3125q0.59375 0.3125 0.953125 0.828125l0 -4.109375l1.40625 0l0 11.453125l-1.3125 0zm-4.4375 -4.140625q0 1.59375 0.671875 2.390625q0.671875 0.78125 1.578125 0.78125q0.921875 0 1.5625 -0.75q0.65625 -0.765625 0.65625 -2.3125q0 -1.703125 -0.65625 -2.5q-0.65625 -0.796875 -1.625 -0.796875q-0.9375 0 -1.5625 0.765625q-0.625 0.765625 -0.625 2.421875zm7.8984375 7.34375l-0.15625 -1.328125q0.453125 0.125 0.796875 0.125q0.46875 0 0.75 -0.15625q0.28125 -0.15625 0.46875 -0.4375q0.125 -0.203125 0.421875 -1.046875q0.046875 -0.109375 0.125 -0.34375l-3.140625 -8.3125l1.515625 0l1.71875 4.796875q0.34375 0.921875 0.609375 1.921875q0.234375 -0.96875 0.578125 -1.890625l1.765625 -4.828125l1.40625 0l-3.15625 8.4375q-0.5 1.375 -0.78125 1.890625q-0.375 0.6875 -0.859375 1.015625q-0.484375 0.328125 -1.15625 0.328125q-0.40625 0 -0.90625 -0.171875zm8.984375 0.171875l-1.015625 0q2.34375 -3.765625 2.34375 -7.515625q0 -1.46875 -0.34375 -2.921875q-0.265625 -1.171875 -0.734375 -2.25q-0.3125 -0.703125 -1.265625 -2.34375l1.015625 0q1.46875 1.96875 2.171875 3.9375q0.59375 1.703125 0.59375 3.5625q0 2.109375 -0.8125 4.09375q-0.796875 1.96875 -1.953125 3.4375zm16.242188 -10.109375l-7.5625 0l0 -1.3125l7.5625 0l0 1.3125zm0 3.46875l-7.5625 0l0 -1.3125l7.5625 0l0 1.3125zm13.3984375 1.90625l0 1.359375l-7.578125 0q-0.015625 -0.515625 0.171875 -0.984375q0.28125 -0.765625 0.921875 -1.515625q0.640625 -0.75 1.84375 -1.734375q1.859375 -1.53125 2.515625 -2.421875q0.65625 -0.90625 0.65625 -1.703125q0 -0.828125 -0.59375 -1.40625q-0.59375 -0.578125 -1.5625 -0.578125q-1.015625 0 -1.625 0.609375q-0.609375 0.609375 -0.609375 1.6875l-1.453125 -0.140625q0.15625 -1.625 1.125 -2.46875q0.96875 -0.84375 2.59375 -0.84375q1.65625 0 2.609375 0.921875q0.96875 0.90625 0.96875 2.25q0 0.6875 -0.28125 1.359375q-0.28125 0.65625 -0.9375 1.390625q-0.65625 0.734375 -2.171875 2.015625q-1.265625 1.0625 -1.625 1.453125q-0.359375 0.375 -0.59375 0.75l5.625 0z" fill-rule="nonzero"/><path fill="#ff0000" d="m507.03592 335.96735l0 -1.046875q-0.78125 1.234375 -2.3125 1.234375q-1.0 0 -1.828125 -0.546875q-0.828125 -0.546875 -1.296875 -1.53125q-0.453125 -0.984375 -0.453125 -2.25q0 -1.25 0.40625 -2.25q0.421875 -1.015625 1.25 -1.546875q0.828125 -0.546875 1.859375 -0.546875q0.75 0 1.328125 0.3125q0.59375 0.3125 0.953125 0.828125l0 -4.109375l1.40625 0l0 11.453125l-1.3125 0zm-4.4375 -4.140625q0 1.59375 0.671875 2.390625q0.671875 0.78125 1.578125 0.78125q0.921875 0 1.5625 -0.75q0.65625 -0.765625 0.65625 -2.3125q0 -1.703125 -0.65625 -2.5q-0.65625 -0.796875 -1.625 -0.796875q-0.9375 0 -1.5625 0.765625q-0.625 0.765625 -0.625 2.421875zm8.2890625 4.140625l0 -7.203125l-1.234375 0l0 -1.09375l1.234375 0l0 -0.890625q0 -0.828125 0.15625 -1.234375q0.203125 -0.546875 0.703125 -0.890625q0.5156555 -0.34375 1.4375305 -0.34375q0.59375 0 1.3125 0.140625l-0.203125 1.234375q-0.4375 -0.078125 -0.828125 -0.078125q-0.640625 0 -0.90625 0.28125q-0.265625 0.265625 -0.265625 1.015625l0 0.765625l1.609375 0l0 1.09375l-1.609375 0l0 7.203125l-1.4062805 0zm3.054718 0.203125l3.328125 -11.859375l1.125 0l-3.3125 11.859375l-1.140625 0zm10.8828125 -0.203125l0 -1.046875q-0.78125 1.234375 -2.3125 1.234375q-1.0 0 -1.828125 -0.546875q-0.828125 -0.546875 -1.296875 -1.53125q-0.453125 -0.984375 -0.453125 -2.25q0 -1.25 0.40625 -2.25q0.421875 -1.015625 1.25 -1.546875q0.828125 -0.546875 1.859375 -0.546875q0.75 0 1.328125 0.3125q0.59375 0.3125 0.953125 0.828125l0 -4.109375l1.40625 0l0 11.453125l-1.3125 0zm-4.4375 -4.140625q0 1.59375 0.671875 2.390625q0.671875 0.78125 1.578125 0.78125q0.921875 0 1.5625 -0.75q0.65625 -0.765625 0.65625 -2.3125q0 -1.703125 -0.65625 -2.5q-0.65625 -0.796875 -1.625 -0.796875q-0.9375 0 -1.5625 0.765625q-0.625 0.765625 -0.625 2.421875zm7.0234375 4.140625l3.03125 -4.3125l-2.8125 -3.984375l1.765625 0l1.265625 1.9375q0.359375 0.5625 0.578125 0.9375q0.34375 -0.515625 0.640625 -0.921875l1.390625 -1.953125l1.6875 0l-2.875 3.90625l3.09375 4.390625l-1.734375 0l-1.703125 -2.578125l-0.453125 -0.703125l-2.171875 3.28125l-1.703125 0zm20.773438 -6.734375l-7.5625 0l0 -1.3125l7.5625 0l0 1.3125zm0 3.46875l-7.5625 0l0 -1.3125l7.5625 0l0 1.3125zm9.0859375 6.640625q-1.171875 -1.46875 -1.984375 -3.4375q-0.796875 -1.984375 -0.796875 -4.09375q0 -1.859375 0.609375 -3.5625q0.703125 -1.96875 2.171875 -3.9375l1.0 0q-0.9375 1.625 -1.25 2.328125q-0.46875 1.078125 -0.75 2.25q-0.328125 1.453125 -0.328125 2.9375q0 3.75 2.328125 7.515625l-1.0 0zm8.015625 -3.375l0 -1.046875q-0.78125 1.234375 -2.3125 1.234375q-1.0 0 -1.828125 -0.546875q-0.828125 -0.546875 -1.296875 -1.53125q-0.453125 -0.984375 -0.453125 -2.25q0 -1.25 0.40625 -2.25q0.421875 -1.015625 1.25 -1.546875q0.828125 -0.546875 1.859375 -0.546875q0.75 0 1.328125 0.3125q0.59375 0.3125 0.953125 0.828125l0 -4.109375l1.40625 0l0 11.453125l-1.3125 0zm-4.4375 -4.140625q0 1.59375 0.671875 2.390625q0.671875 0.78125 1.578125 0.78125q0.921875 0 1.5625 -0.75q0.65625 -0.765625 0.65625 -2.3125q0 -1.703125 -0.65625 -2.5q-0.65625 -0.796875 -1.625 -0.796875q-0.9375 0 -1.5625 0.765625q-0.625 0.765625 -0.625 2.421875zm8.2890625 4.140625l0 -7.203125l-1.234375 0l0 -1.09375l1.234375 0l0 -0.890625q0 -0.828125 0.15625 -1.234375q0.203125 -0.546875 0.703125 -0.890625q0.515625 -0.34375 1.4375 -0.34375q0.59375 0 1.3125 0.140625l-0.203125 1.234375q-0.4375 -0.078125 -0.828125 -0.078125q-0.640625 0 -0.90625 0.28125q-0.265625 0.265625 -0.265625 1.015625l0 0.765625l1.609375 0l0 1.09375l-1.609375 0l0 7.203125l-1.40625 0zm3.0546875 0.203125l3.328125 -11.859375l1.125 0l-3.3125 11.859375l-1.140625 0zm10.8828125 -0.203125l0 -1.046875q-0.78125 1.234375 -2.3125 1.234375q-1.0 0 -1.828125 -0.546875q-0.828125 -0.546875 -1.296875 -1.53125q-0.453125 -0.984375 -0.453125 -2.25q0 -1.25 0.40625 -2.25q0.421875 -1.015625 1.25 -1.546875q0.828125 -0.546875 1.859375 -0.546875q0.75 0 1.328125 0.3125q0.59375 0.3125 0.953125 0.828125l0 -4.109375l1.40625 0l0 11.453125l-1.3125 0zm-4.4375 -4.140625q0 1.59375 0.671875 2.390625q0.671875 0.78125 1.578125 0.78125q0.921875 0 1.5625 -0.75q0.65625 -0.765625 0.65625 -2.3125q0 -1.703125 -0.65625 -2.5q-0.65625 -0.796875 -1.625 -0.796875q-0.9375 0 -1.5625 0.765625q-0.625 0.765625 -0.625 2.421875zm13.3671875 3.109375q-0.78125 0.671875 -1.5 0.953125q-0.71875 0.265625 -1.546875 0.265625q-1.375 0 -2.109375 -0.671875q-0.734375 -0.671875 -0.734375 -1.703125q0 -0.609375 0.28125 -1.109375q0.28125 -0.515625 0.71875 -0.8125q0.453125 -0.3125 1.015625 -0.46875q0.421875 -0.109375 1.25 -0.203125q1.703125 -0.203125 2.515625 -0.484375q0 -0.296875 0 -0.375q0 -0.859375 -0.390625 -1.203125q-0.546875 -0.484375 -1.609375 -0.484375q-0.984375 0 -1.46875 0.359375q-0.46875 0.34375 -0.6875 1.21875l-1.375 -0.1875q0.1875 -0.875 0.609375 -1.421875q0.4375 -0.546875 1.25 -0.828125q0.8125 -0.296875 1.875 -0.296875q1.0625 0 1.71875 0.25q0.671875 0.25 0.984375 0.625q0.3125 0.375 0.4375 0.953125q0.078125 0.359375 0.078125 1.296875l0 1.875q0 1.96875 0.078125 2.484375q0.09375 0.515625 0.359375 1.0l-1.46875 0q-0.21875 -0.4375 -0.28125 -1.03125zm-0.109375 -3.140625q-0.765625 0.3125 -2.296875 0.53125q-0.875 0.125 -1.234375 0.28125q-0.359375 0.15625 -0.5625 0.46875q-0.1875 0.296875 -0.1875 0.65625q0 0.5625 0.421875 0.9375q0.4375 0.375 1.25 0.375q0.8125 0 1.4375 -0.34375q0.640625 -0.359375 0.9375 -0.984375q0.234375 -0.46875 0.234375 -1.40625l0 -0.515625zm4.5234375 7.546875l-1.015625 0q2.34375 -3.765625 2.34375 -7.515625q0 -1.46875 -0.34375 -2.921875q-0.265625 -1.171875 -0.734375 -2.25q-0.3125 -0.703125 -1.265625 -2.34375l1.015625 0q1.46875 1.96875 2.171875 3.9375q0.59375 1.703125 0.59375 3.5625q0 2.109375 -0.8125 4.09375q-0.796875 1.96875 -1.953125 3.4375zm3.84375 -12.734375l0.359375 -1.109375q1.25 0.4375 1.8125 0.765625q-0.15625 -1.421875 -0.15625 -1.953125l1.125 0q-0.015625 0.78125 -0.171875 1.9375q0.796875 -0.40625 1.84375 -0.75l0.359375 1.109375q-1.0 0.328125 -1.953125 0.4375q0.484375 0.421875 1.34375 1.484375l-0.9375 0.65625q-0.453125 -0.609375 -1.0625 -1.671875q-0.578125 1.09375 -1.015625 1.671875l-0.921875 -0.65625q0.90625 -1.125 1.296875 -1.484375q-1.015625 -0.1875 -1.921875 -0.4375zm9.4765625 12.734375q-1.171875 -1.46875 -1.984375 -3.4375q-0.796875 -1.984375 -0.796875 -4.09375q0 -1.859375 0.609375 -3.5625q0.703125 -1.96875 2.171875 -3.9375l1.0 0q-0.9375 1.625 -1.25 2.328125q-0.46875 1.078125 -0.75 2.25q-0.328125 1.453125 -0.328125 2.9375q0 3.75 2.328125 7.515625l-1.0 0zm8.015625 -3.375l0 -1.046875q-0.78125 1.234375 -2.3125 1.234375q-1.0 0 -1.828125 -0.546875q-0.828125 -0.546875 -1.296875 -1.53125q-0.453125 -0.984375 -0.453125 -2.25q0 -1.25 0.40625 -2.25q0.421875 -1.015625 1.25 -1.546875q0.828125 -0.546875 1.859375 -0.546875q0.75 0 1.328125 0.3125q0.59375 0.3125 0.953125 0.828125l0 -4.109375l1.40625 0l0 11.453125l-1.3125 0zm-4.4375 -4.140625q0 1.59375 0.671875 2.390625q0.671875 0.78125 1.578125 0.78125q0.921875 0 1.5625 -0.75q0.65625 -0.765625 0.65625 -2.3125q0 -1.703125 -0.65625 -2.5q-0.65625 -0.796875 -1.625 -0.796875q-0.9375 0 -1.5625 0.765625q-0.625 0.765625 -0.625 2.421875zm13.3671875 3.109375q-0.78125 0.671875 -1.5 0.953125q-0.71875 0.265625 -1.546875 0.265625q-1.375 0 -2.109375 -0.671875q-0.734375 -0.671875 -0.734375 -1.703125q0 -0.609375 0.28125 -1.109375q0.28125 -0.515625 0.71875 -0.8125q0.453125 -0.3125 1.015625 -0.46875q0.421875 -0.109375 1.25 -0.203125q1.703125 -0.203125 2.515625 -0.484375q0 -0.296875 0 -0.375q0 -0.859375 -0.390625 -1.203125q-0.546875 -0.484375 -1.609375 -0.484375q-0.984375 0 -1.46875 0.359375q-0.46875 0.34375 -0.6875 1.21875l-1.375 -0.1875q0.1875 -0.875 0.609375 -1.421875q0.4375 -0.546875 1.25 -0.828125q0.8125 -0.296875 1.875 -0.296875q1.0625 0 1.71875 0.25q0.671875 0.25 0.984375 0.625q0.3125 0.375 0.4375 0.953125q0.078125 0.359375 0.078125 1.296875l0 1.875q0 1.96875 0.078125 2.484375q0.09375 0.515625 0.359375 1.0l-1.46875 0q-0.21875 -0.4375 -0.28125 -1.03125zm-0.109375 -3.140625q-0.765625 0.3125 -2.296875 0.53125q-0.875 0.125 -1.234375 0.28125q-0.359375 0.15625 -0.5625 0.46875q-0.1875 0.296875 -0.1875 0.65625q0 0.5625 0.421875 0.9375q0.4375 0.375 1.25 0.375q0.8125 0 1.4375 -0.34375q0.640625 -0.359375 0.9375 -0.984375q0.234375 -0.46875 0.234375 -1.40625l0 -0.515625zm2.5390625 4.375l3.328125 -11.859375l1.125 0l-3.3125 11.859375l-1.140625 0zm10.8828125 -0.203125l0 -1.046875q-0.78125 1.234375 -2.3125 1.234375q-1.0 0 -1.828125 -0.546875q-0.828125 -0.546875 -1.296875 -1.53125q-0.453125 -0.984375 -0.453125 -2.25q0 -1.25 0.40625 -2.25q0.421875 -1.015625 1.25 -1.546875q0.828125 -0.546875 1.859375 -0.546875q0.75 0 1.328125 0.3125q0.59375 0.3125 0.953125 0.828125l0 -4.109375l1.40625 0l0 11.453125l-1.3125 0zm-4.4375 -4.140625q0 1.59375 0.671875 2.390625q0.671875 0.78125 1.578125 0.78125q0.921875 0 1.5625 -0.75q0.65625 -0.765625 0.65625 -2.3125q0 -1.703125 -0.65625 -2.5q-0.65625 -0.796875 -1.625 -0.796875q-0.9375 0 -1.5625 0.765625q-0.625 0.765625 -0.625 2.421875zm7.0234375 4.140625l3.03125 -4.3125l-2.8125 -3.984375l1.765625 0l1.265625 1.9375q0.359375 0.5625 0.578125 0.9375q0.34375 -0.515625 0.640625 -0.921875l1.390625 -1.953125l1.6875 0l-2.875 3.90625l3.09375 4.390625l-1.734375 0l-1.703125 -2.578125l-0.453125 -0.703125l-2.171875 3.28125l-1.703125 0zm9.859375 3.375l-1.015625 0q2.34375 -3.765625 2.34375 -7.515625q0 -1.46875 -0.34375 -2.921875q-0.265625 -1.171875 -0.734375 -2.25q-0.3125 -0.703125 -1.265625 -2.34375l1.015625 0q1.46875 1.96875 2.171875 3.9375q0.59375 1.703125 0.59375 3.5625q0 2.109375 -0.8125 4.09375q-0.796875 1.96875 -1.953125 3.4375zm11.8046875 -5.234375l0 -3.140625l-3.125 0l0 -1.3125l3.125 0l0 -3.109375l1.328125 0l0 3.109375l3.109375 0l0 1.3125l-3.109375 0l0 3.140625l-1.328125 0zm13.5234375 5.234375q-1.171875 -1.46875 -1.984375 -3.4375q-0.796875 -1.984375 -0.796875 -4.09375q0 -1.859375 0.609375 -3.5625q0.703125 -1.96875 2.171875 -3.9375l1.0 0q-0.9375 1.625 -1.25 2.328125q-0.46875 1.078125 -0.75 2.25q-0.328125 1.453125 -0.328125 2.9375q0 3.75 2.328125 7.515625l-1.0 0zm8.015625 -3.375l0 -1.046875q-0.78125 1.234375 -2.3125 1.234375q-1.0 0 -1.828125 -0.546875q-0.828125 -0.546875 -1.296875 -1.53125q-0.453125 -0.984375 -0.453125 -2.25q0 -1.25 0.40625 -2.25q0.421875 -1.015625 1.25 -1.546875q0.828125 -0.546875 1.859375 -0.546875q0.75 0 1.328125 0.3125q0.59375 0.3125 0.953125 0.828125l0 -4.109375l1.40625 0l0 11.453125l-1.3125 0zm-4.4375 -4.140625q0 1.59375 0.671875 2.390625q0.671875 0.78125 1.578125 0.78125q0.921875 0 1.5625 -0.75q0.65625 -0.765625 0.65625 -2.3125q0 -1.703125 -0.65625 -2.5q-0.65625 -0.796875 -1.625 -0.796875q-0.9375 0 -1.5625 0.765625q-0.625 0.765625 -0.625 2.421875zm8.2890625 4.140625l0 -7.203125l-1.234375 0l0 -1.09375l1.234375 0l0 -0.890625q0 -0.828125 0.15625 -1.234375q0.203125 -0.546875 0.703125 -0.890625q0.515625 -0.34375 1.4375 -0.34375q0.59375 0 1.3125 0.140625l-0.203125 1.234375q-0.4375 -0.078125 -0.828125 -0.078125q-0.640625 0 -0.90625 0.28125q-0.265625 0.265625 -0.265625 1.015625l0 0.765625l1.609375 0l0 1.09375l-1.609375 0l0 7.203125l-1.40625 0zm3.0546875 0.203125l3.328125 -11.859375l1.125 0l-3.3125 11.859375l-1.140625 0zm10.8828125 -0.203125l0 -1.046875q-0.78125 1.234375 -2.3125 1.234375q-1.0 0 -1.828125 -0.546875q-0.828125 -0.546875 -1.296875 -1.53125q-0.453125 -0.984375 -0.453125 -2.25q0 -1.25 0.40625 -2.25q0.421875 -1.015625 1.25 -1.546875q0.828125 -0.546875 1.859375 -0.546875q0.75 0 1.328125 0.3125q0.59375 0.3125 0.953125 0.828125l0 -4.109375l1.40625 0l0 11.453125l-1.3125 0zm-4.4375 -4.140625q0 1.59375 0.671875 2.390625q0.671875 0.78125 1.578125 0.78125q0.921875 0 1.5625 -0.75q0.65625 -0.765625 0.65625 -2.3125q0 -1.703125 -0.65625 -2.5q-0.65625 -0.796875 -1.625 -0.796875q-0.9375 0 -1.5625 0.765625q-0.625 0.765625 -0.625 2.421875zm9.2578125 4.140625l-1.3125 0l0 -11.453125l1.40625 0l0 4.078125q0.890625 -1.109375 2.28125 -1.109375q0.765625 0 1.4375 0.3125q0.6875 0.296875 1.125 0.859375q0.453125 0.5625 0.703125 1.359375q0.25 0.78125 0.25 1.671875q0 2.140625 -1.0625 3.3125q-1.046875 1.15625 -2.53125 1.15625q-1.46875 0 -2.296875 -1.234375l0 1.046875zm-0.015625 -4.21875q0 1.5 0.40625 2.15625q0.65625 1.09375 1.796875 1.09375q0.921875 0 1.59375 -0.796875q0.671875 -0.8125 0.671875 -2.390625q0 -1.625 -0.65625 -2.390625q-0.640625 -0.78125 -1.546875 -0.78125q-0.921875 0 -1.59375 0.796875q-0.671875 0.796875 -0.671875 2.3125zm8.5390625 7.59375l-1.015625 0q2.34375 -3.765625 2.34375 -7.515625q0 -1.46875 -0.34375 -2.921875q-0.265625 -1.171875 -0.734375 -2.25q-0.3125 -0.703125 -1.265625 -2.34375l1.015625 0q1.46875 1.96875 2.171875 3.9375q0.59375 1.703125 0.59375 3.5625q0 2.109375 -0.8125 4.09375q-0.796875 1.96875 -1.953125 3.4375zm3.84375 -12.734375l0.359375 -1.109375q1.25 0.4375 1.8125 0.765625q-0.15625 -1.421875 -0.15625 -1.953125l1.125 0q-0.015625 0.78125 -0.171875 1.9375q0.796875 -0.40625 1.84375 -0.75l0.359375 1.109375q-1.0 0.328125 -1.953125 0.4375q0.484375 0.421875 1.34375 1.484375l-0.9375 0.65625q-0.453125 -0.609375 -1.0625 -1.671875q-0.578125 1.09375 -1.015625 1.671875l-0.921875 -0.65625q0.90625 -1.125 1.296875 -1.484375q-1.015625 -0.1875 -1.921875 -0.4375zm9.4765625 12.734375q-1.171875 -1.46875 -1.984375 -3.4375q-0.796875 -1.984375 -0.796875 -4.09375q0 -1.859375 0.609375 -3.5625q0.703125 -1.96875 2.171875 -3.9375l1.0 0q-0.9375 1.625 -1.25 2.328125q-0.46875 1.078125 -0.75 2.25q-0.328125 1.453125 -0.328125 2.9375q0 3.75 2.328125 7.515625l-1.0 0zm8.015625 -3.375l0 -1.046875q-0.78125 1.234375 -2.3125 1.234375q-1.0 0 -1.828125 -0.546875q-0.828125 -0.546875 -1.296875 -1.53125q-0.453125 -0.984375 -0.453125 -2.25q0 -1.25 0.40625 -2.25q0.421875 -1.015625 1.25 -1.546875q0.828125 -0.546875 1.859375 -0.546875q0.75 0 1.328125 0.3125q0.59375 0.3125 0.953125 0.828125l0 -4.109375l1.40625 0l0 11.453125l-1.3125 0zm-4.4375 -4.140625q0 1.59375 0.671875 2.390625q0.671875 0.78125 1.578125 0.78125q0.921875 0 1.5625 -0.75q0.65625 -0.765625 0.65625 -2.3125q0 -1.703125 -0.65625 -2.5q-0.65625 -0.796875 -1.625 -0.796875q-0.9375 0 -1.5625 0.765625q-0.625 0.765625 -0.625 2.421875zm9.2578125 4.140625l-1.3125 0l0 -11.453125l1.40625 0l0 4.078125q0.890625 -1.109375 2.28125 -1.109375q0.765625 0 1.4375 0.3125q0.6875 0.296875 1.125 0.859375q0.453125 0.5625 0.703125 1.359375q0.25 0.78125 0.25 1.671875q0 2.140625 -1.0625 3.3125q-1.046875 1.15625 -2.53125 1.15625q-1.46875 0 -2.296875 -1.234375l0 1.046875zm-0.015625 -4.21875q0 1.5 0.40625 2.15625q0.65625 1.09375 1.796875 1.09375q0.921875 0 1.59375 -0.796875q0.671875 -0.8125 0.671875 -2.390625q0 -1.625 -0.65625 -2.390625q-0.640625 -0.78125 -1.546875 -0.78125q-0.921875 0 -1.59375 0.796875q-0.671875 0.796875 -0.671875 2.3125zm6.5546875 4.421875l3.328125 -11.859375l1.125 0l-3.3125 11.859375l-1.140625 0zm10.8828125 -0.203125l0 -1.046875q-0.78125 1.234375 -2.3125 1.234375q-1.0 0 -1.828125 -0.546875q-0.828125 -0.546875 -1.296875 -1.53125q-0.453125 -0.984375 -0.453125 -2.25q0 -1.25 0.40625 -2.25q0.421875 -1.015625 1.25 -1.546875q0.828125 -0.546875 1.859375 -0.546875q0.75 0 1.328125 0.3125q0.59375 0.3125 0.953125 0.828125l0 -4.109375l1.40625 0l0 11.453125l-1.3125 0zm-4.4375 -4.140625q0 1.59375 0.671875 2.390625q0.671875 0.78125 1.578125 0.78125q0.921875 0 1.5625 -0.75q0.65625 -0.765625 0.65625 -2.3125q0 -1.703125 -0.65625 -2.5q-0.65625 -0.796875 -1.625 -0.796875q-0.9375 0 -1.5625 0.765625q-0.625 0.765625 -0.625 2.421875zm7.0234375 4.140625l3.03125 -4.3125l-2.8125 -3.984375l1.765625 0l1.265625 1.9375q0.359375 0.5625 0.578125 0.9375q0.34375 -0.515625 0.640625 -0.921875l1.390625 -1.953125l1.6875 0l-2.875 3.90625l3.09375 4.390625l-1.734375 0l-1.703125 -2.578125l-0.453125 -0.703125l-2.171875 3.28125l-1.703125 0zm9.859375 3.375l-1.015625 0q2.34375 -3.765625 2.34375 -7.515625q0 -1.46875 -0.34375 -2.921875q-0.265625 -1.171875 -0.734375 -2.25q-0.3125 -0.703125 -1.265625 -2.34375l1.015625 0q1.46875 1.96875 2.171875 3.9375q0.59375 1.703125 0.59375 3.5625q0 2.109375 -0.8125 4.09375q-0.796875 1.96875 -1.953125 3.4375zm16.242188 -10.109375l-7.5625 0l0 -1.3125l7.5625 0l0 1.3125zm0 3.46875l-7.5625 0l0 -1.3125l7.5625 0l0 1.3125zm6.0078125 0.265625l1.46875 -0.125q0.171875 1.078125 0.765625 1.625q0.59375 0.53125 1.4375 0.53125q1.015625 0 1.71875 -0.765625q0.703125 -0.765625 0.703125 -2.03125q0 -1.203125 -0.671875 -1.890625q-0.671875 -0.703125 -1.765625 -0.703125q-0.6875 0 -1.234375 0.3125q-0.546875 0.3125 -0.859375 0.796875l-1.3125 -0.171875l1.109375 -5.875l5.6875 0l0 1.34375l-4.5625 0l-0.625 3.078125q1.03125 -0.71875 2.171875 -0.71875q1.5 0 2.53125 1.046875q1.03125 1.03125 1.03125 2.65625q0 1.5625 -0.90625 2.6875q-1.109375 1.40625 -3.015625 1.40625q-1.5625 0 -2.546875 -0.875q-0.984375 -0.890625 -1.125 -2.328125z" fill-rule="nonzero"/></g></svg>